<svg xmlns="http://www.w3.org/2000/svg" viewBox="0 0 80 80" ><path fill="#545c9c" d="M 28.236 14.003 C 24.791 15.745, 20.876 18.607, 19.536 20.363 C 18.197 22.120, 16.188 25.569, 15.072 28.028 C 13.751 30.942, 13.036 34.648, 13.022 38.663 C 13.004 43.693, 13.597 45.973, 16.250 51.073 C 18.609 55.608, 20.821 58.229, 24.318 60.633 C 26.968 62.454, 30.793 64.404, 32.818 64.966 C 34.843 65.529, 38.782 65.991, 41.572 65.994 C 44.361 65.997, 48.858 65.246, 51.563 64.324 C 54.832 63.210, 58.248 60.883, 61.742 57.389 C 64.691 54.439, 67 51.224, 67 50.065 C 67 48.896, 66.349 48, 65.500 48 C 64.675 48, 64 48.471, 64 49.048 C 64 49.624, 61.805 52.290, 59.123 54.972 C 55.594 58.502, 52.780 60.285, 48.941 61.425 C 46.024 62.291, 42.594 63, 41.318 63 L 39 63 39 38.500 L 39 14 41.318 14 C 42.594 14, 46.011 14.705, 48.913 15.567 C 52.187 16.539, 55.810 18.627, 58.457 21.067 C 60.804 23.230, 63.236 25, 63.862 25 C 64.488 25, 65 24.416, 65 23.703 C 65 22.990, 63.313 20.789, 61.250 18.813 C 59.188 16.837, 55.925 14.417, 54 13.434 C 51.817 12.320, 47.490 11.495, 42.500 11.242 C 35.089 10.865, 34.038 11.069, 28.236 14.003"/></svg>
