<svg xmlns="http://www.w3.org/2000/svg" viewBox="0 0 572 581"><path d="M311.038 15.391C306.473 16.854 298 25.27 298 28.341c0 1.166-3.599 1.534-19.75 2.022-22.044.665-30.52 1.6-50.25 5.546-16.628 3.325-17.251 3.393-18.049 1.972-2.427-4.321-8.206-8.689-14.201-10.732-4.724-1.61-9.369-.221-15.524 4.645-5.511 4.357-8.226 9.701-8.226 16.191 0 4.607-.248 5.158-2.75 6.101-1.512.57-4.057 1.684-5.654 2.475-1.597.792-3.509 1.439-4.25 1.439-.74 0-1.346.42-1.346.933 0 .513-.897 1.217-1.994 1.565-1.097.348-2.57 1.166-3.275 1.818-.704.651-3.294 2.736-5.756 4.632-2.461 1.897-4.836 4.037-5.278 4.756-.441.719-1.796 2.463-3.011 3.874l-2.208 2.567-4.281-4.072c-2.355-2.24-5.162-4.073-6.239-4.073S124 69.643 124 69.207c0-1.374-8.773-3.207-15.349-3.207-11.364 0-26.024 6.723-29.72 13.629-.698 1.304-1.643 2.371-2.1 2.371-.457 0-.831.873-.831 1.941s-.45 2.219-1 2.559c-1.5.927-1.203 9.786.457 13.628.802 1.855 2.318 4.643 3.369 6.196 2.385 3.524 13.09 11.651 15.365 11.665.93.006 1.937.409 2.238.896.62 1.003 4.571 1.925 12.538 2.927l5.467.688-.31 21.907c-.171 12.049-.774 23.074-1.342 24.5a619.713 619.713 0 0 0-1.803 4.593c-.722 1.871-2.294 5.392-8.479 19l-5.114 11.25c-6.133 13.491-11.373 34.416-11.332 45.25.017 4.434 1.982 17.684 3.781 25.5 1.461 6.344 6.521 20.967 7.382 21.333.431.184.783 1.021.783 1.86 0 1.438 5.788 13.226 7.024 14.307.315.275 1.647 2.075 2.961 4 3.917 5.738 20.061 21.364 26.651 25.794 7.087 4.765 19.841 11.134 26.364 13.165 2.475.771 4.95 1.71 5.5 2.087.55.377 2.125.929 3.5 1.227 1.375.298 5.2 1.215 8.5 2.037 3.3.823 8.7 2.032 12 2.688 3.3.656 7.034 1.6 8.297 2.097 1.263.498 3.453.905 4.867.905 2.287 0 2.501.302 1.946 2.75-.343 1.512-1.085 6.575-1.651 11.25-.565 4.675-1.479 11.2-2.031 14.5-.552 3.3-1.235 9.375-1.519 13.5-.619 9.015-1.413 10.84-7.895 18.165-2.758 3.116-5.91 7.391-7.004 9.5-1.095 2.109-2.228 4.06-2.517 4.335-1.065 1.012-2.993 10.154-2.993 14.193 0 7.254 4.059 17.18 9.74 23.816 1.879 2.195 4.056 3.991 4.838 3.991s1.422.399 1.422.886 1.569 1.631 3.486 2.541c1.918.91 3.888 2.423 4.378 3.364 1.131 2.167 4.136 17.065 4.136 20.5 0 1.425.45 2.869 1 3.209.55.34 1 1.695 1 3.012s.407 3.428.905 4.691c.497 1.263 1.46 4.997 2.139 8.297 1.535 7.458 7.174 24.883 8.198 25.333.417.184.758 1.196.758 2.25 0 1.055.45 1.917 1 1.917s1 .727 1 1.617c0 2.228 10.886 12.789 15.076 14.624 7.452 3.264 11.463 3.906 21.424 3.428 11.248-.54 17.255-1.464 18.068-2.779.303-.49 1.301-.89 2.219-.89 2.223 0 15.213-6.129 15.213-7.177 0-.453.648-.823 1.441-.823s1.655-.347 1.918-.771c.262-.424.981-13.362 1.599-28.75 1.343-33.483 2.102-37.02 9.617-44.824 7.089-7.361 14.269-9.342 24.309-6.706 11.296 2.966 13.116 3.559 13.116 4.269 0 .43 1.035.782 2.3.782s2.728.369 3.25.82c1.933 1.668 20.244 6.707 28.45 7.83 7.394 1.011 24.55.952 29.5-.101 12.416-2.643 23.278-11.494 27.671-22.549 4.842-12.183 5.648-18.114 3.535-26-3.601-13.436-12.757-19.365-41.956-27.167-2.612-.698-4.75-1.621-4.75-2.051 0-.43-.9-.782-2-.782s-2-.34-2-.756-1.277-1.321-2.839-2.012l-2.839-1.257-1.586-16.237c-1.498-15.327-2.225-19.982-4.802-30.738-.593-2.475-1.321-5.967-1.617-7.759-.296-1.793-.938-3.507-1.427-3.809-.49-.303-.89-1.622-.89-2.932 0-1.31-.398-2.628-.885-2.929-1.065-.658-2.042-6.567-1.376-8.321.261-.687 1.237-1.25 2.168-1.25s2.121-.398 2.643-.884c.523-.485 3.875-1.888 7.45-3.116 3.575-1.228 6.928-2.631 7.45-3.116.523-.486 1.535-.884 2.249-.884.715 0 5.01-1.8 9.546-4s8.811-4 9.501-4c.69 0 1.254-.45 1.254-1s.9-1 2-1 2-.45 2-1 .9-1 2-1 2-.361 2-.803c0-.442 2.243-1.904 4.984-3.25 2.742-1.346 4.992-2.784 5-3.197.009-.413.606-.75 1.327-.75.722 0 2.185-.788 3.251-1.75 1.067-.962 3.637-3.018 5.712-4.568 4.753-3.552 7.389-6.189 12.307-12.313 2.151-2.678 4.588-5.549 5.415-6.38.827-.831 2.067-2.518 2.754-3.75.688-1.231 1.813-3.251 2.5-4.489.688-1.238 1.475-2.475 1.75-2.75 1.323-1.323 5-8.961 5-10.386 0-.888.45-1.614 1-1.614s1-.681 1-1.514c0-.832.397-2.295.883-3.25 1.716-3.373 2.974-6.771 3.603-9.736.351-1.65 1.128-5.25 1.728-8 1.533-7.032 1.46-36.895-.103-42.5-.691-2.475-1.497-5.963-1.793-7.75-.295-1.787-.938-3.25-1.427-3.25-.49 0-.891-.688-.891-1.529 0-1.584-5.267-12.555-7.328-15.262-1.801-2.367-14.961-15.56-27.172-27.241-10.096-9.657-15.964-15.765-25.568-26.61-1.962-2.216-5.902-7.59-8.756-11.943s-5.637-8.459-6.183-9.123c-.546-.664-.993-1.902-.993-2.75 0-.848-.337-1.546-.75-1.55-.413-.004-1.305-1.204-1.984-2.666-1.477-3.179-.195-5.326 3.179-5.326 4.116 0 14.974-6.134 20.106-11.358C429.37 67.7 432 62.006 432 54.184c0-3.456-.441-6.184-1-6.184-.55 0-1-.758-1-1.684 0-2.489-9.582-11.282-13.049-11.976-1.646-.329-3.235-.99-3.531-1.469-.296-.479-3.969-.871-8.162-.871-11.729 0-23.678 5.02-31.409 13.196-3.161 3.343-7.219 3.643-10.849.804-1.375-1.076-3.062-1.966-3.75-1.978-.687-.012-1.25-.42-1.25-.905 0-.486-.788-1.145-1.75-1.464-.962-.32-3.55-1.266-5.75-2.102-2.2-.837-4.766-1.528-5.703-1.536-2.839-.025-6.797-2.243-6.797-3.809 0-7.196-7.462-16.829-14.72-19.004-4.656-1.395-7.434-1.352-12.242.189m1.114 11.494c-.742.47-1.186 1.701-.987 2.735.275 1.428 1.559 2.033 5.348 2.519 2.743.351 6.225.962 7.737 1.358 2.3.602 2.75.403 2.75-1.214 0-3.419-4.145-6.285-9.064-6.268-2.44.009-5.043.4-5.784.87M187.704 39.596c-4.111 2.229-5.965 8.404-2.523 8.404C187.07 48 200 42.651 200 41.87c0-1.428-4.446-3.87-6.973-3.83-1.39.022-3.785.722-5.323 1.556m78.796 2.43c-29.705 2.652-52.348 7.321-75.139 15.494-20.635 7.4-32.113 13.392-39.169 20.448-7.335 7.335-13.928 17.058-19.21 28.329-5.532 11.806-7.167 19.728-6.835 33.133.644 26.048-.003 29.954-7.612 45.98-15.578 32.809-19.097 42.922-20.147 57.896-1.247 17.778 3.525 37.907 13.687 57.726 11.496 22.423 28.315 35.773 57.169 45.378 54.476 18.134 132.179 11.954 211.256-16.801 13.854-5.038 38.432-17.247 50.5-25.086 12.078-7.845 25.865-23.533 32.977-37.523 4.308-8.474 7.903-21.417 9.216-33.177 2.98-26.702-5.502-52.789-21.35-65.663-10.006-8.128-29.897-27.383-37.29-36.098-16.007-18.866-23.536-31.432-26.985-45.037-2.21-8.714-5.22-13.534-12.991-20.804-15.664-14.653-46.11-23.824-81.989-24.697-8.848-.215-20.588.011-26.088.502m131.697 1.986c-6.321 1.325-18.779 8.816-18.051 10.854.194.547 2.604 3.406 5.354 6.354 2.75 2.949 5.961 7.143 7.137 9.32 1.175 2.178 3.2 4.345 4.501 4.816 7.41 2.681 22.885-8.631 25.374-18.548.75-2.988-2.834-8.508-7.169-11.04-3.8-2.219-11.281-2.985-17.146-1.756M99.5 77.882c-7.127 1.86-11.403 5.28-13.835 11.064-1.238 2.944-1.232 3.855.046 6.97 1.898 4.626 6.759 9.729 11.685 12.267 3.662 1.886 17.672 4.023 20.262 3.09.638-.229 1.679-1.847 2.316-3.595.636-1.748 3.152-7.296 5.591-12.329S130 85.77 130 85.247c0-.523-3.037-2.339-6.75-4.036-7.198-3.289-18.065-4.812-23.75-3.329m311 87.673c-1.985.787-54.395 9.267-71.356 11.545l-17.356 2.331.438 5.283c.241 2.906.678 5.523.971 5.816.68.68 46.331-5.797 62.803-8.91 34.557-6.532 32-5.875 32-8.215 0-1.185-.281-3.561-.625-5.28-.515-2.577-1.085-3.111-3.25-3.046-1.444.043-3.075.257-3.625.476m-173 29.544c-8.157 1.408-34.582 3.705-56 4.868-11 .597-21.8 1.186-24 1.309l-4 .224-.303 5.261c-.244 4.253.031 5.389 1.437 5.929 2.165.83 62.137-3.227 80.205-5.426l13.339-1.624-.589-2.945c-.324-1.62-.589-4.239-.589-5.82 0-3.213-.567-3.319-9.5-1.776m115 155.44c-3.85 1.287-12.175 3.558-18.5 5.048-6.325 1.49-11.896 3.061-12.38 3.491-.484.43 2.073 2.924 5.682 5.541 7.437 5.393 10.985 11.124 12.723 20.548 1.264 6.851.044 15.817-2.951 21.687-1.138 2.231-4.64 6.567-7.782 9.635-6.668 6.509-10.966 8.064-24.792 8.966-4.95.323-21.984 1.508-37.852 2.634-15.869 1.126-29.481 1.805-30.25 1.51-.941-.361-1.398-2.181-1.398-5.568 0-4.553.214-5.03 2.25-5.023 1.238.005 13.5-.888 27.25-1.984s30.748-2.444 37.773-2.995c7.429-.582 13.974-1.622 15.642-2.485 3.658-1.892 8.932-8.524 10.147-12.759 3.264-11.381-1.986-24.173-11.377-27.721-4.062-1.535-19.456-1.239-24.185.465-4.35 1.567-8.456 1.912-8.574.721-.194-1.951-1.007-5.664-1.306-5.963-.184-.184-6.361.125-13.727.687-7.366.561-22.035 1.022-32.598 1.024l-19.204.002-.503 3.25c-4.093 26.457-5.596 41.741-5.582 56.75.026 29.079 2.834 52.052 10.608 86.792 10.149 45.35 15.075 52.208 37.5 52.208 7.122 0 10.723-.596 18.338-3.035 5.212-1.67 10.143-3.703 10.959-4.519 1.224-1.224 1.472-5.28 1.418-23.214-.06-20.094.124-22.449 2.435-31.243 4.306-16.386 10.875-28.624 21.554-40.159 5.885-6.357 8.39-7.148 11.993-3.791 2.895 2.697 2.797 3.282-1.311 7.829-1.925 2.131-3.5 4.152-3.5 4.491 0 .34 2.813.589 6.25.554 7.679-.078 15.843 1.805 30.482 7.032 16.762 5.984 29.414 8.306 42.768 7.848 12.947-.443 17.715-2.181 24.228-8.828 5.162-5.269 7.311-11.287 7.538-21.118.304-13.12-2.113-15.31-25.123-22.768-16.082-5.213-25.587-10.173-29.614-15.452-2.171-2.846-2.448-4.194-2.404-11.672.066-11.281-4.408-37.495-9.253-54.205-2.277-7.856-2.375-7.886-13.372-4.211m-155.324 86.285c-4.357 4.357-6.417 10.076-5.977 16.594.709 10.515 8.142 23.722 10.938 19.435.486-.744.685-2.253.444-3.353-.242-1.1-.752-8.75-1.133-17-.794-17.2-1.213-18.735-4.272-15.676" fill="#030202" fill-rule="evenodd"/></svg>