<svg xmlns="http://www.w3.org/2000/svg" width="414" height="421" viewBox="0 0 414 421" version="1.1"><path d="M 152 14.982 C 119.305 15.784, 115.487 16.335, 110.500 20.971 C 105.998 25.156, 103.312 26.228, 99.107 25.518 C 94.218 24.692, 90.087 27.546, 91.783 30.578 C 92.743 32.293, 94.164 32.519, 104.986 32.672 L 117.114 32.845 118.295 30.172 C 118.944 28.703, 120.156 26.961, 120.988 26.302 C 122.140 25.389, 140.494 25.167, 198 25.373 C 258.504 25.589, 274.270 25.380, 277.376 24.321 C 279.507 23.595, 283.825 23, 286.971 23 C 293.795 23, 296 24.798, 296 30.361 C 296 35.141, 298.612 36.310, 305 34.388 C 310.212 32.821, 312.552 33.295, 314.128 36.239 C 315.871 39.495, 312.860 41.161, 306.548 40.433 C 303.772 40.112, 300.600 39.479, 299.500 39.025 C 298.400 38.571, 295.475 37.320, 293 36.244 C 290.525 35.169, 285.350 33.368, 281.500 32.241 C 274.688 30.249, 272.595 30.202, 203.500 30.508 C 158.727 30.706, 131.022 31.206, 128.500 31.861 C 126.300 32.431, 123.580 34.050, 122.456 35.457 C 120.721 37.629, 119.137 38.176, 111.956 39.083 C 100.330 40.552, 98.899 41.068, 97.017 44.466 C 95.659 46.919, 94.263 47.697, 88.940 48.966 C 83.350 50.299, 82.308 50.917, 81.003 53.679 C 80.176 55.427, 77.700 58.632, 75.500 60.801 C 73.300 62.970, 70.974 65.289, 70.331 65.953 C 69.688 66.618, 67.775 68.441, 66.081 70.004 C 64.386 71.567, 63 73.725, 63 74.798 C 63 76.170, 62.102 76.930, 59.978 77.354 C 57.964 77.757, 56.294 79.083, 54.966 81.332 C 53.726 83.435, 51.498 85.287, 49.053 86.247 C 44.911 87.874, 45.200 87.244, 43.476 98.389 C 43.073 100.989, 42.239 102.073, 39.891 103.045 C 36.279 104.541, 35 107.383, 35 113.916 C 35 120.500, 33.296 124.795, 30.010 126.495 C 27.795 127.640, 27.084 128.890, 26.474 132.714 C 26.054 135.346, 25.785 155.500, 25.876 177.500 C 25.968 199.500, 25.523 229.547, 24.887 244.272 C 23.696 271.891, 24.044 278.139, 27.543 292.018 C 29.355 299.204, 28.644 302, 25.005 302 C 20.519 302, 19.599 298.293, 20.997 285.845 C 23.136 266.800, 23.183 264.550, 21.672 253.500 C 20.501 244.943, 20.213 233.394, 20.374 201.500 C 20.488 178.950, 20.287 154.650, 19.926 147.500 C 19.181 132.714, 20.294 126.844, 24.543 123.150 C 26.867 121.129, 27.100 120.284, 26.874 114.702 C 26.699 110.406, 27.141 107.517, 28.311 105.300 C 29.240 103.539, 30 101.579, 30 100.944 C 30 100.308, 31.298 98.148, 32.885 96.144 C 35.899 92.337, 37.985 86.450, 37.994 81.725 C 37.998 79.704, 38.665 78.698, 40.450 78.019 C 42.160 77.369, 43.232 75.852, 44.002 72.992 C 44.609 70.740, 45.644 68.733, 46.302 68.532 C 46.961 68.331, 48.699 67.905, 50.165 67.586 C 51.809 67.227, 53.311 65.918, 54.086 64.169 C 54.776 62.609, 56.952 60.471, 58.920 59.417 C 61.612 57.975, 62.730 56.567, 63.429 53.740 C 64.229 50.499, 64.891 49.837, 68.230 48.938 C 70.360 48.364, 72.370 47.200, 72.696 46.350 C 73.022 45.500, 75.136 44.012, 77.394 43.043 C 79.652 42.073, 83.055 40.333, 84.957 39.175 L 88.413 37.071 84.739 35.535 C 77.918 32.686, 73.628 34.282, 72.841 39.963 C 72.583 41.828, 71.713 42.586, 69.260 43.085 C 63.936 44.167, 49.874 54.300, 46.750 59.304 C 45.237 61.727, 44 64.247, 44 64.903 C 44 65.559, 42.840 67.094, 41.422 68.314 C 40.003 69.534, 38.525 72.100, 38.136 74.016 C 37.543 76.938, 36.950 77.554, 34.464 77.834 C 30.426 78.288, 28.020 80.697, 27.900 84.405 C 27.737 89.483, 26.642 91.999, 24.030 93.299 C 19.899 95.356, 18.423 99.092, 19.537 104.675 C 20.908 111.541, 20.355 113.583, 15.992 117.784 C 13.869 119.828, 11.600 122.850, 10.949 124.500 C 10.092 126.671, 9.620 148.077, 9.242 202 C 8.955 242.975, 8.746 277.625, 8.778 279 C 8.828 281.126, 10.775 304.204, 10.942 304.655 C 10.974 304.741, 12.575 306.696, 14.500 309 C 17.559 312.661, 18 313.876, 18 318.634 C 18 324.414, 20.721 331.295, 23.416 332.329 C 24.241 332.646, 25.625 335.340, 26.490 338.317 C 27.628 342.233, 29.160 344.713, 32.031 347.291 C 34.214 349.250, 36 351.488, 36 352.263 C 36 353.734, 42.976 363.056, 50.256 371.314 C 52.590 373.962, 55.412 377.264, 56.526 378.653 C 57.815 380.258, 60.545 381.693, 64.026 382.596 C 67.037 383.376, 69.614 384.349, 69.754 384.758 C 71.293 389.256, 74.284 391.941, 79.424 393.435 C 82.930 394.454, 85.550 395.910, 86.508 397.372 C 88.649 400.640, 92.217 402, 98.646 402 C 103.292 402, 105.168 402.598, 110.132 405.662 C 115.500 408.976, 117.037 409.408, 126.282 410.204 C 131.902 410.689, 143.700 411.016, 152.500 410.932 C 161.300 410.848, 196.850 410.670, 231.500 410.536 C 266.150 410.403, 296.003 410.228, 297.839 410.147 C 300.379 410.035, 302.226 408.922, 305.552 405.500 C 309.391 401.550, 310.449 400.999, 314.213 400.994 C 320.209 400.987, 326.058 399.218, 329 396.524 C 330.375 395.265, 333.606 393.321, 336.179 392.205 C 339.195 390.897, 341.410 389.107, 342.412 387.171 C 343.416 385.229, 345.022 383.934, 346.956 383.510 C 348.600 383.149, 351.236 381.649, 352.813 380.176 C 354.390 378.704, 357.889 375.706, 360.590 373.513 C 363.290 371.320, 366.327 368.498, 367.338 367.243 C 368.349 365.987, 370.479 364.286, 372.071 363.463 C 375.349 361.768, 377.413 358.265, 378.424 352.682 C 378.950 349.783, 379.923 348.388, 382.468 346.887 C 384.614 345.620, 386.421 343.398, 387.492 340.705 C 388.413 338.392, 390.400 334.629, 391.908 332.342 C 393.678 329.659, 395.259 325.090, 396.364 319.466 C 397.587 313.243, 398.972 309.447, 401.206 306.201 C 403.874 302.323, 404.442 300.389, 405.059 293.077 C 405.457 288.359, 406.325 283.325, 406.989 281.889 C 407.973 279.757, 407.908 278.723, 406.635 276.261 C 405.252 273.587, 405.122 264.968, 405.488 200.372 C 405.784 148.105, 405.578 125.974, 404.758 122.103 C 403.876 117.933, 402.717 115.842, 399.668 112.912 C 395.990 109.378, 395.760 108.828, 396.292 104.863 C 397.095 98.875, 394.976 94.306, 390.536 92.451 C 387.190 91.052, 387 90.718, 387 86.209 C 387 80.688, 385.305 77.783, 381.055 76.023 C 378.253 74.862, 376.026 70.588, 376.006 66.331 C 376.003 65.688, 374.313 63.670, 372.250 61.845 C 370.188 60.020, 365.259 55.202, 361.297 51.138 C 355.571 45.264, 353.009 43.397, 348.797 42.030 C 345.257 40.881, 343.098 39.513, 342.289 37.905 C 340.635 34.621, 337.225 32, 334.605 32 C 333.410 32, 330.014 30.442, 327.058 28.538 C 322.188 25.400, 317.812 24.177, 311.350 24.149 C 310.167 24.144, 307.139 22.567, 304.621 20.644 C 301.166 18.007, 298.748 17.018, 294.771 16.617 C 287.176 15.849, 269.016 14.692, 265.500 14.751 C 249.475 15.020, 234.188 14.990, 210.500 14.643 C 195.100 14.418, 168.775 14.570, 152 14.982 M 316.412 42.369 C 315.562 44.585, 316.283 47.173, 318 48.064 C 318.825 48.493, 322.199 49.216, 325.499 49.672 C 330.953 50.425, 331.636 50.795, 333.026 53.754 C 333.866 55.544, 336.199 58.364, 338.210 60.021 C 340.220 61.679, 342.008 64.035, 342.183 65.257 C 342.366 66.544, 343.342 67.631, 344.500 67.840 C 347.263 68.337, 351 71.971, 351 74.161 C 351 75.280, 352.313 76.522, 354.434 77.408 C 356.375 78.219, 358.558 80.179, 359.457 81.918 C 360.344 83.633, 362.536 85.615, 364.411 86.398 C 367.129 87.534, 368.094 88.767, 369.442 92.825 C 370.359 95.587, 371.786 98.407, 372.612 99.093 C 373.439 99.779, 375.228 102.239, 376.587 104.559 C 378.599 107.992, 378.936 109.550, 378.396 112.928 C 377.917 115.918, 378.231 118.186, 379.518 121.039 C 381.613 125.686, 382.370 125.891, 384.637 122.431 C 386.106 120.190, 386.172 119.059, 385.160 113.566 C 384.522 110.103, 384 105.103, 384 102.456 C 384 98.334, 383.533 97.192, 380.750 94.512 C 376.813 90.721, 370.160 80.131, 368.675 75.291 C 367.952 72.936, 366.323 70.966, 363.759 69.348 C 361.649 68.016, 359.420 65.821, 358.804 64.469 C 358.188 63.117, 356.208 61.140, 354.404 60.076 C 352.600 59.012, 350.418 56.776, 349.555 55.107 C 348.453 52.975, 346.847 51.767, 344.152 51.041 C 342.043 50.473, 339.459 49.041, 338.409 47.859 C 335.736 44.849, 329.512 42.337, 322.746 41.536 C 318.094 40.986, 316.882 41.145, 316.412 42.369 M 203.823 42.986 L 136.146 43.500 133.323 45.743 C 127.899 50.054, 124.447 51.414, 117.355 52.033 C 111.687 52.527, 109.186 53.314, 105.251 55.839 C 102.524 57.589, 98.038 59.690, 95.284 60.508 C 92.529 61.326, 89.007 62.993, 87.457 64.213 C 85.906 65.432, 82.357 67.192, 79.569 68.124 C 76.362 69.196, 74.055 70.678, 73.289 72.159 C 71.704 75.221, 68.235 78, 65.996 78 C 64.094 78, 63 79.895, 63 83.189 C 63 84.303, 61.447 88.204, 59.549 91.857 C 57.651 95.511, 55.558 100.670, 54.899 103.323 C 54.204 106.115, 52.119 110.058, 49.948 112.686 C 46.430 116.944, 46.205 117.619, 46.348 123.531 C 46.474 128.742, 46.104 130.327, 44.217 132.668 C 42.962 134.226, 41.028 137.413, 39.920 139.750 C 37.831 144.159, 37.773 147.919, 37.895 270.750 C 37.910 286.733, 38.076 287.631, 41.613 290.968 C 45.232 294.381, 45.288 294.535, 47.087 306 C 47.735 310.125, 49.105 315.068, 50.132 316.985 C 51.160 318.902, 52 321.024, 52 321.701 C 52 322.378, 52.648 324.410, 53.439 326.216 C 54.230 328.022, 55.145 330.761, 55.471 332.303 C 55.846 334.073, 57.326 335.850, 59.488 337.125 C 61.371 338.236, 63.206 340.075, 63.567 341.211 C 64.377 343.763, 73.441 352.660, 77.224 354.616 C 78.757 355.409, 81.114 357.804, 82.462 359.939 C 84.108 362.547, 85.903 364.039, 87.929 364.484 C 89.588 364.849, 91.971 366.356, 93.223 367.833 C 96.569 371.781, 102.498 373.774, 108 372.801 C 114.033 371.734, 122.258 373.362, 127.902 376.740 C 130.431 378.253, 133.682 380.011, 135.127 380.646 C 138.117 381.960, 280.023 382.935, 283.500 381.665 C 284.600 381.264, 286.407 379.487, 287.517 377.718 L 289.533 374.500 302.719 374 L 315.905 373.500 319.202 369.920 C 321.446 367.484, 324.015 365.963, 327.242 365.158 C 331.247 364.159, 332.210 363.433, 333.443 360.481 C 334.277 358.487, 335.976 356.579, 337.404 356.037 C 338.779 355.514, 340.614 353.714, 341.481 352.038 C 342.348 350.361, 344.808 347.883, 346.949 346.532 C 349.090 345.181, 351.122 343.191, 351.465 342.110 C 351.808 341.029, 353.584 339.263, 355.412 338.184 C 357.918 336.706, 358.912 335.282, 359.453 332.396 C 360.456 327.051, 362.398 323.660, 365.367 322.071 C 368.544 320.371, 369.319 317.134, 369.442 305.038 L 369.538 295.576 373.286 291.961 C 377.819 287.589, 377.506 293.534, 376.645 228 C 376.287 200.775, 375.996 170.129, 375.997 159.898 C 376 141.705, 375.946 141.221, 373.533 137.898 C 372.176 136.029, 370.264 133.392, 369.283 132.039 C 367.931 130.172, 367.561 128.025, 367.753 123.154 C 367.998 116.927, 367.885 116.599, 364.080 112.471 C 361.092 109.229, 359.984 107.052, 359.441 103.356 C 358.514 97.049, 357.343 94.009, 354.791 91.284 C 353.650 90.066, 351.914 86.691, 350.934 83.784 C 349.691 80.099, 348.561 78.408, 347.200 78.197 C 344.861 77.833, 341.337 74.215, 340.850 71.677 C 340.623 70.493, 338.648 69.228, 335.216 68.069 C 332.309 67.087, 328.929 65.342, 327.704 64.191 C 326.478 63.040, 322.926 61.434, 319.809 60.623 C 312.781 58.792, 310.511 57.616, 305.693 53.306 C 303.465 51.315, 301.183 50.093, 300.193 50.363 C 291.486 52.739, 284.578 51.113, 279.411 45.472 C 277.247 43.110, 275.474 42.076, 273.865 42.236 C 272.564 42.366, 241.045 42.704, 203.823 42.986 M 95.062 95.482 C 89.075 97.088, 86.095 98.436, 84.800 100.123 C 83.797 101.430, 81.645 104.141, 80.018 106.147 C 77.943 108.706, 76.976 111.094, 76.780 114.147 L 76.500 118.500 80.715 118.806 C 83.863 119.034, 85.709 118.536, 88.004 116.839 C 92.053 113.846, 100.329 113.019, 115 114.142 C 128.070 115.143, 292.905 115.016, 297.500 114.002 C 299.150 113.638, 301.850 113.746, 303.500 114.243 C 305.150 114.740, 310.550 115.561, 315.500 116.066 C 320.450 116.571, 326.780 117.251, 329.567 117.577 L 334.635 118.168 334.864 113.143 C 335.096 108.056, 331.905 99.711, 328.828 97.359 C 323.838 93.546, 312.065 91.915, 304.993 94.059 C 300.354 95.465, 110.165 95.394, 106.459 93.984 C 105.035 93.443, 103.787 93.049, 103.685 93.109 C 103.583 93.169, 99.703 94.237, 95.062 95.482 M 388.238 129.750 C 387.854 130.713, 387.708 133.525, 387.915 136 C 388.345 141.147, 388.386 154.343, 388.142 210.500 C 388.034 235.439, 388.406 254.467, 389.132 261.036 C 390.124 270.017, 390.060 272.672, 388.694 279.036 C 387.813 283.141, 386.800 289.047, 386.442 292.159 C 385.856 297.260, 386.002 297.931, 387.917 298.955 C 391.866 301.069, 392.225 299.598, 392.145 281.623 C 392.103 272.205, 392.238 235.475, 392.446 200 C 392.672 161.212, 392.444 134.005, 391.873 131.750 C 390.855 127.731, 389.371 126.915, 388.238 129.750 M 316.961 134.547 C 316.255 135.397, 314.402 137.002, 312.843 138.112 L 310.008 140.130 305.660 137.007 L 301.311 133.884 297.499 136.133 C 294.262 138.043, 292.392 138.357, 285.094 138.217 C 280.367 138.126, 275.150 138.039, 273.500 138.022 C 270.348 137.992, 149.722 138.899, 120.500 139.174 C 106.789 139.302, 102.594 139.008, 98.817 137.650 C 94.239 136.004, 94.013 136.019, 88.799 138.325 C 85.277 139.883, 83.046 141.603, 82.232 143.389 C 80.326 147.572, 80.710 153.362, 83.094 156.393 C 84.950 158.752, 85.833 159.040, 90.844 158.926 C 94.122 158.851, 98.082 159.479, 100.263 160.418 C 103.740 161.914, 104.269 161.912, 107.209 160.392 C 110.211 158.840, 120.004 158.266, 122.038 159.524 C 123.178 160.228, 286.076 160.256, 289.124 159.553 C 290.431 159.252, 295.742 159.606, 300.926 160.340 C 306.791 161.171, 311.986 161.371, 314.674 160.869 C 319.395 159.987, 321.117 160.368, 325.205 163.199 C 327.448 164.752, 328.248 164.862, 329.884 163.840 C 332.849 161.988, 334.002 158.579, 333.985 151.703 C 333.967 143.826, 332.540 141.074, 326.971 138.167 C 324.512 136.884, 321.790 135.196, 320.921 134.417 C 318.932 132.632, 318.540 132.644, 316.961 134.547 M 298.705 179.937 C 297.337 180.907, 292.893 181.795, 287 182.277 C 273.327 183.396, 172.652 184.065, 145.413 183.218 C 132.715 182.823, 120.239 182.884, 117.690 183.353 C 114.341 183.970, 111.867 183.803, 108.777 182.755 C 105.485 181.637, 103.003 181.515, 98 182.224 C 85.001 184.066, 83.749 184.441, 81.782 187.083 C 80.010 189.463, 79.948 190.318, 80.993 197.948 C 82.652 210.067, 84.682 212.555, 89.520 208.399 C 91.985 206.281, 93.295 205.982, 99.920 206.032 C 104.089 206.063, 111.100 205.896, 115.500 205.660 C 131.730 204.790, 276.575 204.878, 279.500 205.759 C 281.150 206.257, 286.917 206.459, 292.316 206.210 C 300.316 205.840, 302.871 206.089, 306.127 207.557 C 309.887 209.253, 310.290 209.260, 312.965 207.679 C 314.859 206.561, 318.026 206, 322.450 206 C 328.168 206, 329.432 205.659, 331.545 203.545 C 333.683 201.408, 334 200.189, 334 194.101 C 334 188.274, 333.622 186.672, 331.728 184.470 C 329.349 181.705, 330.369 181.927, 307.205 179.133 C 302.204 178.530, 300.457 178.696, 298.705 179.937 M 101.500 257.115 C 99.850 257.726, 96.925 259.452, 95 260.950 C 93.075 262.449, 89.622 264.857, 87.326 266.302 C 83.396 268.776, 83.116 269.265, 82.525 274.714 C 81.692 282.403, 80.121 293.190, 78.821 300.159 C 77.476 307.368, 79.586 313.767, 85.155 319.365 C 87.270 321.491, 89 323.775, 89 324.441 C 89 325.107, 90.134 326.716, 91.519 328.018 C 93.934 330.287, 94.626 330.381, 108.226 330.302 C 117.309 330.250, 123.987 330.694, 126.788 331.537 C 130.364 332.613, 131.834 332.619, 134.832 331.573 C 136.849 330.868, 140.116 329.994, 142.090 329.631 C 144.065 329.267, 146.699 327.885, 147.944 326.560 L 150.207 324.150 147.354 318.825 C 143.200 311.074, 139.791 309.675, 124 309.239 C 107.788 308.792, 104.688 307.589, 102.458 300.874 C 101.571 298.204, 100.947 294.327, 101.070 292.260 C 101.193 290.192, 100.947 286.329, 100.522 283.675 C 100.015 280.504, 100.128 278.472, 100.853 277.747 C 101.544 277.056, 108.392 276.525, 119.206 276.325 C 143.278 275.877, 145.837 274.718, 144.482 264.871 C 143.451 257.373, 142.396 256.981, 121.848 256.451 C 110.502 256.158, 103.462 256.388, 101.500 257.115 M 205.102 256.882 C 198.944 258.002, 197.631 261.167, 197.169 276 C 196.920 283.991, 196.331 289.290, 195.633 289.838 C 193.561 291.461, 184.355 291.980, 182.442 290.581 C 179.936 288.749, 178.096 280.841, 178.044 271.684 C 177.985 261.270, 177.222 260, 171.024 260 C 168.326 260, 165.877 260.390, 165.583 260.866 C 165.288 261.343, 164.787 265.056, 164.470 269.116 C 164.152 273.177, 163.439 279.133, 162.884 282.352 C 161.606 289.766, 162.925 291.491, 171.105 293.101 C 177.959 294.449, 178.829 295.888, 176.423 301.901 C 174.975 305.519, 174.951 306.281, 176.225 308.256 C 178.438 311.690, 178.851 314.415, 177.916 319.419 C 176.868 325.027, 177.432 326.655, 181.072 328.537 C 187.050 331.629, 201.783 329.151, 203.230 324.811 C 203.457 324.128, 202.808 321.369, 201.787 318.681 C 200.344 314.883, 199.994 311.645, 200.215 304.147 L 200.500 294.500 207.224 294 C 217.735 293.218, 218.001 292.718, 217.278 275.048 C 216.733 261.719, 216.509 260.418, 214.389 258.298 C 212.042 255.951, 211.049 255.799, 205.102 256.882 M 379.309 304.136 C 377.424 306.021, 377.356 306.526, 378.545 309.852 C 379.263 311.858, 380.139 314.400, 380.492 315.500 C 381.403 318.336, 382.587 315.911, 383.457 309.430 C 384.310 303.080, 382.576 300.868, 379.309 304.136 M 29.721 304.250 C 29.277 305.493, 31.591 311, 32.558 311 C 33.742 311, 34.697 306.372, 33.847 304.750 C 32.784 302.721, 30.371 302.429, 29.721 304.250 M 38.822 330.490 C 37.910 332.494, 38.039 333.760, 39.483 336.963 C 40.471 339.153, 41.649 340.717, 42.101 340.438 C 43.588 339.518, 44.279 332.908, 43.147 330.423 C 41.734 327.322, 40.256 327.345, 38.822 330.490 M 370.996 330.509 C 370.085 332.907, 370.466 337.084, 371.811 339.434 C 372.616 340.841, 373.850 336.984, 373.930 332.809 C 374.016 328.266, 372.347 326.957, 370.996 330.509 M 361.099 346.557 C 358.396 351.138, 358.454 351.825, 361.607 352.616 C 364.407 353.319, 366.373 351.573, 365.489 349.168 C 365.220 348.436, 365 346.748, 365 345.418 C 365 341.993, 363.540 342.419, 361.099 346.557 M 48.430 346.421 C 47.537 349.982, 48.276 352.430, 50.368 352.832 C 53.697 353.473, 54.518 351.377, 52.445 347.528 C 50.210 343.377, 49.260 343.115, 48.430 346.421 M 353.109 358.369 C 352.218 359.443, 352.199 360.005, 353.039 360.524 C 354.669 361.532, 356.693 359.293, 355.358 357.958 C 354.634 357.234, 353.946 357.360, 353.109 358.369 M 58 359.500 C 58 360.417, 58.484 361.005, 59.075 360.808 C 59.666 360.611, 60.150 360.022, 60.150 359.500 C 60.150 358.978, 59.666 358.389, 59.075 358.192 C 58.484 357.995, 58 358.583, 58 359.500 M 339.750 366.245 C 337.688 367.404, 336 369.118, 336 370.054 C 336 372.604, 333.950 373.827, 329.082 374.181 C 324.164 374.539, 321.281 377.280, 324 379.013 C 325.947 380.254, 328.612 380.235, 333.250 378.947 C 336.166 378.138, 337 377.405, 337 375.653 C 337 372.532, 338.837 371, 342.578 371 C 346.127 371, 348.341 369.016, 347.822 366.298 C 347.343 363.785, 344.165 363.764, 339.750 366.245 M 67.250 365.735 C 65.725 366.262, 65.595 369.632, 67.065 370.540 C 68.388 371.358, 75 370.191, 75 369.140 C 75 368.001, 68.702 365.234, 67.250 365.735 M 82 376.293 L 78.500 377.241 82.349 378.603 C 85.107 379.578, 86.746 379.671, 88.127 378.932 C 92.144 376.782, 87.531 374.795, 82 376.293 M 293.192 385.713 C 289.186 386.479, 291.416 388.514, 296.020 388.295 C 301.304 388.042, 303.322 387.330, 302.504 386.007 C 301.886 385.006, 297.602 384.871, 293.192 385.713 M 110.500 386.968 C 113.067 388.112, 121 388.261, 121 387.164 C 121 386.704, 118.188 386.271, 114.750 386.202 C 110.344 386.113, 109.090 386.339, 110.500 386.968 M 133.500 393.131 C 125.931 394.534, 125.133 394.928, 127.345 396.170 C 130.350 397.857, 215.195 398.444, 246.033 396.991 C 265.641 396.067, 273.909 396.029, 277.709 396.844 C 281.390 397.634, 283.727 397.643, 285.926 396.876 C 289.550 395.613, 289.805 394.501, 286.837 392.913 C 285.143 392.006, 282.845 392.140, 276.219 393.530 C 268.442 395.162, 266.590 395.192, 253.132 393.902 C 238.598 392.509, 185.207 391.982, 157.500 392.958 C 150.350 393.210, 143.150 393.143, 141.500 392.810 C 139.850 392.477, 136.250 392.622, 133.500 393.131" stroke="none" fill="#313131" fill-rule="evenodd"/><path d="M -0 210.502 L -0 421.005 207.250 420.752 L 414.500 420.500 414.752 210.250 L 415.005 0 207.502 0 L 0 0 -0 210.502 M 0.491 211 C 0.491 326.775, 0.607 374.137, 0.750 316.250 C 0.893 258.362, 0.893 163.637, 0.750 105.750 C 0.607 47.862, 0.491 95.225, 0.491 211 M 152 14.982 C 119.305 15.784, 115.487 16.335, 110.500 20.971 C 105.998 25.156, 103.312 26.228, 99.107 25.518 C 94.218 24.692, 90.087 27.546, 91.783 30.578 C 92.743 32.293, 94.164 32.519, 104.986 32.672 L 117.114 32.845 118.295 30.172 C 118.944 28.703, 120.156 26.961, 120.988 26.302 C 122.140 25.389, 140.494 25.167, 198 25.373 C 258.504 25.589, 274.270 25.380, 277.376 24.321 C 279.507 23.595, 283.825 23, 286.971 23 C 293.795 23, 296 24.798, 296 30.361 C 296 35.141, 298.612 36.310, 305 34.388 C 310.212 32.821, 312.552 33.295, 314.128 36.239 C 315.871 39.495, 312.860 41.161, 306.548 40.433 C 303.772 40.112, 300.600 39.479, 299.500 39.025 C 298.400 38.571, 295.475 37.320, 293 36.244 C 290.525 35.169, 285.350 33.368, 281.500 32.241 C 274.688 30.249, 272.595 30.202, 203.500 30.508 C 158.727 30.706, 131.022 31.206, 128.500 31.861 C 126.300 32.431, 123.580 34.050, 122.456 35.457 C 120.721 37.629, 119.137 38.176, 111.956 39.083 C 100.330 40.552, 98.899 41.068, 97.017 44.466 C 95.659 46.919, 94.263 47.697, 88.940 48.966 C 83.350 50.299, 82.308 50.917, 81.003 53.679 C 80.176 55.427, 77.700 58.632, 75.500 60.801 C 73.300 62.970, 70.974 65.289, 70.331 65.953 C 69.688 66.618, 67.775 68.441, 66.081 70.004 C 64.386 71.567, 63 73.725, 63 74.798 C 63 76.170, 62.102 76.930, 59.978 77.354 C 57.964 77.757, 56.294 79.083, 54.966 81.332 C 53.726 83.435, 51.498 85.287, 49.053 86.247 C 44.911 87.874, 45.200 87.244, 43.476 98.389 C 43.073 100.989, 42.239 102.073, 39.891 103.045 C 36.279 104.541, 35 107.383, 35 113.916 C 35 120.500, 33.296 124.795, 30.010 126.495 C 27.795 127.640, 27.084 128.890, 26.474 132.714 C 26.054 135.346, 25.785 155.500, 25.876 177.500 C 25.968 199.500, 25.523 229.547, 24.887 244.272 C 23.696 271.891, 24.044 278.139, 27.543 292.018 C 29.355 299.204, 28.644 302, 25.005 302 C 20.519 302, 19.599 298.293, 20.997 285.845 C 23.136 266.800, 23.183 264.550, 21.672 253.500 C 20.501 244.943, 20.213 233.394, 20.374 201.500 C 20.488 178.950, 20.287 154.650, 19.926 147.500 C 19.181 132.714, 20.294 126.844, 24.543 123.150 C 26.867 121.129, 27.100 120.284, 26.874 114.702 C 26.699 110.406, 27.141 107.517, 28.311 105.300 C 29.240 103.539, 30 101.579, 30 100.944 C 30 100.308, 31.298 98.148, 32.885 96.144 C 35.899 92.337, 37.985 86.450, 37.994 81.725 C 37.998 79.704, 38.665 78.698, 40.450 78.019 C 42.160 77.369, 43.232 75.852, 44.002 72.992 C 44.609 70.740, 45.644 68.733, 46.302 68.532 C 46.961 68.331, 48.699 67.905, 50.165 67.586 C 51.809 67.227, 53.311 65.918, 54.086 64.169 C 54.776 62.609, 56.952 60.471, 58.920 59.417 C 61.612 57.975, 62.730 56.567, 63.429 53.740 C 64.229 50.499, 64.891 49.837, 68.230 48.938 C 70.360 48.364, 72.370 47.200, 72.696 46.350 C 73.022 45.500, 75.136 44.012, 77.394 43.043 C 79.652 42.073, 83.055 40.333, 84.957 39.175 L 88.413 37.071 84.739 35.535 C 77.918 32.686, 73.628 34.282, 72.841 39.963 C 72.583 41.828, 71.713 42.586, 69.260 43.085 C 63.936 44.167, 49.874 54.300, 46.750 59.304 C 45.237 61.727, 44 64.247, 44 64.903 C 44 65.559, 42.840 67.094, 41.422 68.314 C 40.003 69.534, 38.525 72.100, 38.136 74.016 C 37.543 76.938, 36.950 77.554, 34.464 77.834 C 30.426 78.288, 28.020 80.697, 27.900 84.405 C 27.737 89.483, 26.642 91.999, 24.030 93.299 C 19.899 95.356, 18.423 99.092, 19.537 104.675 C 20.908 111.541, 20.355 113.583, 15.992 117.784 C 13.869 119.828, 11.600 122.850, 10.949 124.500 C 10.092 126.671, 9.620 148.077, 9.242 202 C 8.955 242.975, 8.746 277.625, 8.778 279 C 8.828 281.126, 10.775 304.204, 10.942 304.655 C 10.974 304.741, 12.575 306.696, 14.500 309 C 17.559 312.661, 18 313.876, 18 318.634 C 18 324.414, 20.721 331.295, 23.416 332.329 C 24.241 332.646, 25.625 335.340, 26.490 338.317 C 27.628 342.233, 29.160 344.713, 32.031 347.291 C 34.214 349.250, 36 351.488, 36 352.263 C 36 353.734, 42.976 363.056, 50.256 371.314 C 52.590 373.962, 55.412 377.264, 56.526 378.653 C 57.815 380.258, 60.545 381.693, 64.026 382.596 C 67.037 383.376, 69.614 384.349, 69.754 384.758 C 71.293 389.256, 74.284 391.941, 79.424 393.435 C 82.930 394.454, 85.550 395.910, 86.508 397.372 C 88.649 400.640, 92.217 402, 98.646 402 C 103.292 402, 105.168 402.598, 110.132 405.662 C 115.500 408.976, 117.037 409.408, 126.282 410.204 C 131.902 410.689, 143.700 411.016, 152.500 410.932 C 161.300 410.848, 196.850 410.670, 231.500 410.536 C 266.150 410.403, 296.003 410.228, 297.839 410.147 C 300.379 410.035, 302.226 408.922, 305.552 405.500 C 309.391 401.550, 310.449 400.999, 314.213 400.994 C 320.209 400.987, 326.058 399.218, 329 396.524 C 330.375 395.265, 333.606 393.321, 336.179 392.205 C 339.195 390.897, 341.410 389.107, 342.412 387.171 C 343.416 385.229, 345.022 383.934, 346.956 383.510 C 348.600 383.149, 351.236 381.649, 352.813 380.176 C 354.390 378.704, 357.889 375.706, 360.590 373.513 C 363.290 371.320, 366.327 368.498, 367.338 367.243 C 368.349 365.987, 370.479 364.286, 372.071 363.463 C 375.349 361.768, 377.413 358.265, 378.424 352.682 C 378.950 349.783, 379.923 348.388, 382.468 346.887 C 384.614 345.620, 386.421 343.398, 387.492 340.705 C 388.413 338.392, 390.400 334.629, 391.908 332.342 C 393.678 329.659, 395.259 325.090, 396.364 319.466 C 397.587 313.243, 398.972 309.447, 401.206 306.201 C 403.874 302.323, 404.442 300.389, 405.059 293.077 C 405.457 288.359, 406.325 283.325, 406.989 281.889 C 407.973 279.757, 407.908 278.723, 406.635 276.261 C 405.252 273.587, 405.122 264.968, 405.488 200.372 C 405.784 148.105, 405.578 125.974, 404.758 122.103 C 403.876 117.933, 402.717 115.842, 399.668 112.912 C 395.990 109.378, 395.760 108.828, 396.292 104.863 C 397.095 98.875, 394.976 94.306, 390.536 92.451 C 387.190 91.052, 387 90.718, 387 86.209 C 387 80.688, 385.305 77.783, 381.055 76.023 C 378.253 74.862, 376.026 70.588, 376.006 66.331 C 376.003 65.688, 374.313 63.670, 372.250 61.845 C 370.188 60.020, 365.259 55.202, 361.297 51.138 C 355.571 45.264, 353.009 43.397, 348.797 42.030 C 345.257 40.881, 343.098 39.513, 342.289 37.905 C 340.635 34.621, 337.225 32, 334.605 32 C 333.410 32, 330.014 30.442, 327.058 28.538 C 322.188 25.400, 317.812 24.177, 311.350 24.149 C 310.167 24.144, 307.139 22.567, 304.621 20.644 C 301.166 18.007, 298.748 17.018, 294.771 16.617 C 287.176 15.849, 269.016 14.692, 265.500 14.751 C 249.475 15.020, 234.188 14.990, 210.500 14.643 C 195.100 14.418, 168.775 14.570, 152 14.982 M 316.412 42.369 C 315.562 44.585, 316.283 47.173, 318 48.064 C 318.825 48.493, 322.199 49.216, 325.499 49.672 C 330.953 50.425, 331.636 50.795, 333.026 53.754 C 333.866 55.544, 336.199 58.364, 338.210 60.021 C 340.220 61.679, 342.008 64.035, 342.183 65.257 C 342.366 66.544, 343.342 67.631, 344.500 67.840 C 347.263 68.337, 351 71.971, 351 74.161 C 351 75.280, 352.313 76.522, 354.434 77.408 C 356.375 78.219, 358.558 80.179, 359.457 81.918 C 360.344 83.633, 362.536 85.615, 364.411 86.398 C 367.129 87.534, 368.094 88.767, 369.442 92.825 C 370.359 95.587, 371.786 98.407, 372.612 99.093 C 373.439 99.779, 375.228 102.239, 376.587 104.559 C 378.599 107.992, 378.936 109.550, 378.396 112.928 C 377.917 115.918, 378.231 118.186, 379.518 121.039 C 381.613 125.686, 382.370 125.891, 384.637 122.431 C 386.106 120.190, 386.172 119.059, 385.160 113.566 C 384.522 110.103, 384 105.103, 384 102.456 C 384 98.334, 383.533 97.192, 380.750 94.512 C 376.813 90.721, 370.160 80.131, 368.675 75.291 C 367.952 72.936, 366.323 70.966, 363.759 69.348 C 361.649 68.016, 359.420 65.821, 358.804 64.469 C 358.188 63.117, 356.208 61.140, 354.404 60.076 C 352.600 59.012, 350.418 56.776, 349.555 55.107 C 348.453 52.975, 346.847 51.767, 344.152 51.041 C 342.043 50.473, 339.459 49.041, 338.409 47.859 C 335.736 44.849, 329.512 42.337, 322.746 41.536 C 318.094 40.986, 316.882 41.145, 316.412 42.369 M 203.823 42.986 L 136.146 43.500 133.323 45.743 C 127.899 50.054, 124.447 51.414, 117.355 52.033 C 111.687 52.527, 109.186 53.314, 105.251 55.839 C 102.524 57.589, 98.038 59.690, 95.284 60.508 C 92.529 61.326, 89.007 62.993, 87.457 64.213 C 85.906 65.432, 82.357 67.192, 79.569 68.124 C 76.362 69.196, 74.055 70.678, 73.289 72.159 C 71.704 75.221, 68.235 78, 65.996 78 C 64.094 78, 63 79.895, 63 83.189 C 63 84.303, 61.447 88.204, 59.549 91.857 C 57.651 95.511, 55.558 100.670, 54.899 103.323 C 54.204 106.115, 52.119 110.058, 49.948 112.686 C 46.430 116.944, 46.205 117.619, 46.348 123.531 C 46.474 128.742, 46.104 130.327, 44.217 132.668 C 42.962 134.226, 41.028 137.413, 39.920 139.750 C 37.831 144.159, 37.773 147.919, 37.895 270.750 C 37.910 286.733, 38.076 287.631, 41.613 290.968 C 45.232 294.381, 45.288 294.535, 47.087 306 C 47.735 310.125, 49.105 315.068, 50.132 316.985 C 51.160 318.902, 52 321.024, 52 321.701 C 52 322.378, 52.648 324.410, 53.439 326.216 C 54.230 328.022, 55.145 330.761, 55.471 332.303 C 55.846 334.073, 57.326 335.850, 59.488 337.125 C 61.371 338.236, 63.206 340.075, 63.567 341.211 C 64.377 343.763, 73.441 352.660, 77.224 354.616 C 78.757 355.409, 81.114 357.804, 82.462 359.939 C 84.108 362.547, 85.903 364.039, 87.929 364.484 C 89.588 364.849, 91.971 366.356, 93.223 367.833 C 96.569 371.781, 102.498 373.774, 108 372.801 C 114.033 371.734, 122.258 373.362, 127.902 376.740 C 130.431 378.253, 133.682 380.011, 135.127 380.646 C 138.117 381.960, 280.023 382.935, 283.500 381.665 C 284.600 381.264, 286.407 379.487, 287.517 377.718 L 289.533 374.500 302.719 374 L 315.905 373.500 319.202 369.920 C 321.446 367.484, 324.015 365.963, 327.242 365.158 C 331.247 364.159, 332.210 363.433, 333.443 360.481 C 334.277 358.487, 335.976 356.579, 337.404 356.037 C 338.779 355.514, 340.614 353.714, 341.481 352.038 C 342.348 350.361, 344.808 347.883, 346.949 346.532 C 349.090 345.181, 351.122 343.191, 351.465 342.110 C 351.808 341.029, 353.584 339.263, 355.412 338.184 C 357.918 336.706, 358.912 335.282, 359.453 332.396 C 360.456 327.051, 362.398 323.660, 365.367 322.071 C 368.544 320.371, 369.319 317.134, 369.442 305.038 L 369.538 295.576 373.286 291.961 C 377.819 287.589, 377.506 293.534, 376.645 228 C 376.287 200.775, 375.996 170.129, 375.997 159.898 C 376 141.705, 375.946 141.221, 373.533 137.898 C 372.176 136.029, 370.264 133.392, 369.283 132.039 C 367.931 130.172, 367.561 128.025, 367.753 123.154 C 367.998 116.927, 367.885 116.599, 364.080 112.471 C 361.092 109.229, 359.984 107.052, 359.441 103.356 C 358.514 97.049, 357.343 94.009, 354.791 91.284 C 353.650 90.066, 351.914 86.691, 350.934 83.784 C 349.691 80.099, 348.561 78.408, 347.200 78.197 C 344.861 77.833, 341.337 74.215, 340.850 71.677 C 340.623 70.493, 338.648 69.228, 335.216 68.069 C 332.309 67.087, 328.929 65.342, 327.704 64.191 C 326.478 63.040, 322.926 61.434, 319.809 60.623 C 312.781 58.792, 310.511 57.616, 305.693 53.306 C 303.465 51.315, 301.183 50.093, 300.193 50.363 C 291.486 52.739, 284.578 51.113, 279.411 45.472 C 277.247 43.110, 275.474 42.076, 273.865 42.236 C 272.564 42.366, 241.045 42.704, 203.823 42.986 M 95.062 95.482 C 89.075 97.088, 86.095 98.436, 84.800 100.123 C 83.797 101.430, 81.645 104.141, 80.018 106.147 C 77.943 108.706, 76.976 111.094, 76.780 114.147 L 76.500 118.500 80.715 118.806 C 83.863 119.034, 85.709 118.536, 88.004 116.839 C 92.053 113.846, 100.329 113.019, 115 114.142 C 128.070 115.143, 292.905 115.016, 297.500 114.002 C 299.150 113.638, 301.850 113.746, 303.500 114.243 C 305.150 114.740, 310.550 115.561, 315.500 116.066 C 320.450 116.571, 326.780 117.251, 329.567 117.577 L 334.635 118.168 334.864 113.143 C 335.096 108.056, 331.905 99.711, 328.828 97.359 C 323.838 93.546, 312.065 91.915, 304.993 94.059 C 300.354 95.465, 110.165 95.394, 106.459 93.984 C 105.035 93.443, 103.787 93.049, 103.685 93.109 C 103.583 93.169, 99.703 94.237, 95.062 95.482 M 388.238 129.750 C 387.854 130.713, 387.708 133.525, 387.915 136 C 388.345 141.147, 388.386 154.343, 388.142 210.500 C 388.034 235.439, 388.406 254.467, 389.132 261.036 C 390.124 270.017, 390.060 272.672, 388.694 279.036 C 387.813 283.141, 386.800 289.047, 386.442 292.159 C 385.856 297.260, 386.002 297.931, 387.917 298.955 C 391.866 301.069, 392.225 299.598, 392.145 281.623 C 392.103 272.205, 392.238 235.475, 392.446 200 C 392.672 161.212, 392.444 134.005, 391.873 131.750 C 390.855 127.731, 389.371 126.915, 388.238 129.750 M 316.961 134.547 C 316.255 135.397, 314.402 137.002, 312.843 138.112 L 310.008 140.130 305.660 137.007 L 301.311 133.884 297.499 136.133 C 294.262 138.043, 292.392 138.357, 285.094 138.217 C 280.367 138.126, 275.150 138.039, 273.500 138.022 C 270.348 137.992, 149.722 138.899, 120.500 139.174 C 106.789 139.302, 102.594 139.008, 98.817 137.650 C 94.239 136.004, 94.013 136.019, 88.799 138.325 C 85.277 139.883, 83.046 141.603, 82.232 143.389 C 80.326 147.572, 80.710 153.362, 83.094 156.393 C 84.950 158.752, 85.833 159.040, 90.844 158.926 C 94.122 158.851, 98.082 159.479, 100.263 160.418 C 103.740 161.914, 104.269 161.912, 107.209 160.392 C 110.211 158.840, 120.004 158.266, 122.038 159.524 C 123.178 160.228, 286.076 160.256, 289.124 159.553 C 290.431 159.252, 295.742 159.606, 300.926 160.340 C 306.791 161.171, 311.986 161.371, 314.674 160.869 C 319.395 159.987, 321.117 160.368, 325.205 163.199 C 327.448 164.752, 328.248 164.862, 329.884 163.840 C 332.849 161.988, 334.002 158.579, 333.985 151.703 C 333.967 143.826, 332.540 141.074, 326.971 138.167 C 324.512 136.884, 321.790 135.196, 320.921 134.417 C 318.932 132.632, 318.540 132.644, 316.961 134.547 M 298.705 179.937 C 297.337 180.907, 292.893 181.795, 287 182.277 C 273.327 183.396, 172.652 184.065, 145.413 183.218 C 132.715 182.823, 120.239 182.884, 117.690 183.353 C 114.341 183.970, 111.867 183.803, 108.777 182.755 C 105.485 181.637, 103.003 181.515, 98 182.224 C 85.001 184.066, 83.749 184.441, 81.782 187.083 C 80.010 189.463, 79.948 190.318, 80.993 197.948 C 82.652 210.067, 84.682 212.555, 89.520 208.399 C 91.985 206.281, 93.295 205.982, 99.920 206.032 C 104.089 206.063, 111.100 205.896, 115.500 205.660 C 131.730 204.790, 276.575 204.878, 279.500 205.759 C 281.150 206.257, 286.917 206.459, 292.316 206.210 C 300.316 205.840, 302.871 206.089, 306.127 207.557 C 309.887 209.253, 310.290 209.260, 312.965 207.679 C 314.859 206.561, 318.026 206, 322.450 206 C 328.168 206, 329.432 205.659, 331.545 203.545 C 333.683 201.408, 334 200.189, 334 194.101 C 334 188.274, 333.622 186.672, 331.728 184.470 C 329.349 181.705, 330.369 181.927, 307.205 179.133 C 302.204 178.530, 300.457 178.696, 298.705 179.937 M 101.500 257.115 C 99.850 257.726, 96.925 259.452, 95 260.950 C 93.075 262.449, 89.622 264.857, 87.326 266.302 C 83.396 268.776, 83.116 269.265, 82.525 274.714 C 81.692 282.403, 80.121 293.190, 78.821 300.159 C 77.476 307.368, 79.586 313.767, 85.155 319.365 C 87.270 321.491, 89 323.775, 89 324.441 C 89 325.107, 90.134 326.716, 91.519 328.018 C 93.934 330.287, 94.626 330.381, 108.226 330.302 C 117.309 330.250, 123.987 330.694, 126.788 331.537 C 130.364 332.613, 131.834 332.619, 134.832 331.573 C 136.849 330.868, 140.116 329.994, 142.090 329.631 C 144.065 329.267, 146.699 327.885, 147.944 326.560 L 150.207 324.150 147.354 318.825 C 143.200 311.074, 139.791 309.675, 124 309.239 C 107.788 308.792, 104.688 307.589, 102.458 300.874 C 101.571 298.204, 100.947 294.327, 101.070 292.260 C 101.193 290.192, 100.947 286.329, 100.522 283.675 C 100.015 280.504, 100.128 278.472, 100.853 277.747 C 101.544 277.056, 108.392 276.525, 119.206 276.325 C 143.278 275.877, 145.837 274.718, 144.482 264.871 C 143.451 257.373, 142.396 256.981, 121.848 256.451 C 110.502 256.158, 103.462 256.388, 101.500 257.115 M 205.102 256.882 C 198.944 258.002, 197.631 261.167, 197.169 276 C 196.920 283.991, 196.331 289.290, 195.633 289.838 C 193.561 291.461, 184.355 291.980, 182.442 290.581 C 179.936 288.749, 178.096 280.841, 178.044 271.684 C 177.985 261.270, 177.222 260, 171.024 260 C 168.326 260, 165.877 260.390, 165.583 260.866 C 165.288 261.343, 164.787 265.056, 164.470 269.116 C 164.152 273.177, 163.439 279.133, 162.884 282.352 C 161.606 289.766, 162.925 291.491, 171.105 293.101 C 177.959 294.449, 178.829 295.888, 176.423 301.901 C 174.975 305.519, 174.951 306.281, 176.225 308.256 C 178.438 311.690, 178.851 314.415, 177.916 319.419 C 176.868 325.027, 177.432 326.655, 181.072 328.537 C 187.050 331.629, 201.783 329.151, 203.230 324.811 C 203.457 324.128, 202.808 321.369, 201.787 318.681 C 200.344 314.883, 199.994 311.645, 200.215 304.147 L 200.500 294.500 207.224 294 C 217.735 293.218, 218.001 292.718, 217.278 275.048 C 216.733 261.719, 216.509 260.418, 214.389 258.298 C 212.042 255.951, 211.049 255.799, 205.102 256.882 M 379.309 304.136 C 377.424 306.021, 377.356 306.526, 378.545 309.852 C 379.263 311.858, 380.139 314.400, 380.492 315.500 C 381.403 318.336, 382.587 315.911, 383.457 309.430 C 384.310 303.080, 382.576 300.868, 379.309 304.136 M 29.721 304.250 C 29.277 305.493, 31.591 311, 32.558 311 C 33.742 311, 34.697 306.372, 33.847 304.750 C 32.784 302.721, 30.371 302.429, 29.721 304.250 M 38.822 330.490 C 37.910 332.494, 38.039 333.760, 39.483 336.963 C 40.471 339.153, 41.649 340.717, 42.101 340.438 C 43.588 339.518, 44.279 332.908, 43.147 330.423 C 41.734 327.322, 40.256 327.345, 38.822 330.490 M 370.996 330.509 C 370.085 332.907, 370.466 337.084, 371.811 339.434 C 372.616 340.841, 373.850 336.984, 373.930 332.809 C 374.016 328.266, 372.347 326.957, 370.996 330.509 M 361.099 346.557 C 358.396 351.138, 358.454 351.825, 361.607 352.616 C 364.407 353.319, 366.373 351.573, 365.489 349.168 C 365.220 348.436, 365 346.748, 365 345.418 C 365 341.993, 363.540 342.419, 361.099 346.557 M 48.430 346.421 C 47.537 349.982, 48.276 352.430, 50.368 352.832 C 53.697 353.473, 54.518 351.377, 52.445 347.528 C 50.210 343.377, 49.260 343.115, 48.430 346.421 M 353.109 358.369 C 352.218 359.443, 352.199 360.005, 353.039 360.524 C 354.669 361.532, 356.693 359.293, 355.358 357.958 C 354.634 357.234, 353.946 357.360, 353.109 358.369 M 58 359.500 C 58 360.417, 58.484 361.005, 59.075 360.808 C 59.666 360.611, 60.150 360.022, 60.150 359.500 C 60.150 358.978, 59.666 358.389, 59.075 358.192 C 58.484 357.995, 58 358.583, 58 359.500 M 339.750 366.245 C 337.688 367.404, 336 369.118, 336 370.054 C 336 372.604, 333.950 373.827, 329.082 374.181 C 324.164 374.539, 321.281 377.280, 324 379.013 C 325.947 380.254, 328.612 380.235, 333.250 378.947 C 336.166 378.138, 337 377.405, 337 375.653 C 337 372.532, 338.837 371, 342.578 371 C 346.127 371, 348.341 369.016, 347.822 366.298 C 347.343 363.785, 344.165 363.764, 339.750 366.245 M 67.250 365.735 C 65.725 366.262, 65.595 369.632, 67.065 370.540 C 68.388 371.358, 75 370.191, 75 369.140 C 75 368.001, 68.702 365.234, 67.250 365.735 M 82 376.293 L 78.500 377.241 82.349 378.603 C 85.107 379.578, 86.746 379.671, 88.127 378.932 C 92.144 376.782, 87.531 374.795, 82 376.293 M 293.192 385.713 C 289.186 386.479, 291.416 388.514, 296.020 388.295 C 301.304 388.042, 303.322 387.330, 302.504 386.007 C 301.886 385.006, 297.602 384.871, 293.192 385.713 M 110.500 386.968 C 113.067 388.112, 121 388.261, 121 387.164 C 121 386.704, 118.188 386.271, 114.750 386.202 C 110.344 386.113, 109.090 386.339, 110.500 386.968 M 133.500 393.131 C 125.931 394.534, 125.133 394.928, 127.345 396.170 C 130.350 397.857, 215.195 398.444, 246.033 396.991 C 265.641 396.067, 273.909 396.029, 277.709 396.844 C 281.390 397.634, 283.727 397.643, 285.926 396.876 C 289.550 395.613, 289.805 394.501, 286.837 392.913 C 285.143 392.006, 282.845 392.140, 276.219 393.530 C 268.442 395.162, 266.590 395.192, 253.132 393.902 C 238.598 392.509, 185.207 391.982, 157.500 392.958 C 150.350 393.210, 143.150 393.143, 141.500 392.810 C 139.850 392.477, 136.250 392.622, 133.500 393.131" stroke="none" fill="#eaeaea" fill-rule="evenodd"/></svg>