<svg xmlns="http://www.w3.org/2000/svg" width="572" height="581" viewBox="0 0 572 581"><path d="M0 290.502v290.501l286.25-.251 286.25-.252.252-290.25L573.003 0H0v290.502m.493.498c0 159.775.116 225.138.257 145.25.141-79.887.141-210.612 0-290.5C.609 65.863.493 131.225.493 291M309.095 16.095c-4.757 2.111-8.222 5.564-10.6 10.565l-1.503 3.159-19.746.539c-10.86.297-21.771.792-24.246 1.1-8.046 1.002-18.42 2.663-22 3.521-1.925.461-5.75 1.298-8.5 1.858-2.75.561-6.256 1.29-7.79 1.621-2.355.507-3.448-.076-7-3.732-7.424-7.641-15.253-10.115-21.938-6.934C180.569 30.268 174 36.179 174 38.385c0 .888-.45 1.615-1 1.615-.564 0-1 2.842-1 6.525 0 6.45-.034 6.532-3 7.125-1.65.33-3 .994-3 1.475 0 .481-.661.875-1.47.875-3.618 0-17.507 9.663-24.066 16.743l-4.036 4.357-2.964-2.615c-2.713-2.393-6.228-4.269-13.761-7.343-6.872-2.805-27.651-.271-31.703 3.865-.275.281-2.184 1.632-4.243 3.002-2.059 1.37-3.746 2.998-3.75 3.619-.004.62-.673 1.68-1.486 2.355C75.729 82.3 74 87.314 74 93.095c0 3.183.45 6.065 1 6.405.55.34 1 1.491 1 2.559s.395 1.941.879 1.941c.483 0 1.392 1.237 2.02 2.75.628 1.513 2.82 3.874 4.872 5.249 2.051 1.374 4.346 3.084 5.1 3.799.753.715 2.666 1.559 4.25 1.876 1.583.317 2.879.921 2.879 1.342 0 .845 4.716 1.82 12.75 2.636 2.916.296 5.291 1.048 5.342 1.691.051.636.021 10.157-.067 21.157-.19 23.987.046 23.084-13.439 51.437-1.422 2.991-2.586 6.028-2.586 6.75 0 .722-.45 1.313-1 1.313s-1 .873-1 1.941-.45 2.219-1 2.559c-.55.34-1 1.716-1 3.059 0 1.343-.45 2.441-1 2.441s-1 1.098-1 2.441c0 1.343-.4 2.688-.89 2.991-.489.302-1.127 2.016-1.419 3.809-.291 1.792-1.232 6.859-2.091 11.259-1.84 9.433-2.032 20.5-.5 28.94 1.14 6.282 4.406 18.569 5.863 22.06.459 1.1 1.383 3.575 2.053 5.5 2.937 8.439 9.034 21 10.193 21 .435 0 .791.567.791 1.261 0 3.398 20.218 23.811 27.885 28.154.888.503 1.846 1.257 2.128 1.675.893 1.326 20.409 10.892 22.237 10.901.963.005 1.75.361 1.75.791 0 .43 2.137 1.378 4.75 2.106 8.098 2.259 11.663 3.335 14.047 4.24 1.263.48 3.481.872 4.929.872 1.448 0 4.014.432 5.703.96 1.689.527 5.931 1.531 9.428 2.23l6.356 1.27-.621 7.02c-.686 7.764-2.183 17.743-3.641 24.284-.523 2.346-.951 7.162-.951 10.703 0 7.32-1.13 10.408-5.461 14.923-4.67 4.869-8.501 9.975-8.521 11.36-.01.688-.416 1.25-.901 1.25-.486 0-1.145.788-1.464 1.75-.32.962-1.266 3.55-2.102 5.75-3.154 8.296-1.172 22.96 3.949 29.223.55.672 2.35 3.014 4 5.204 1.65 2.189 3.478 4.001 4.061 4.027.584.025 2.028.946 3.209 2.046 1.18 1.1 2.647 2 3.26 2 2.6 0 5.017 5.233 6.467 14 .867 5.242 2.243 11.954 3.486 17 1.035 4.201 1.477 5.955 3.972 15.75.526 2.063 1.235 5.1 1.576 6.75.341 1.65 1.096 4.125 1.678 5.5.582 1.375 1.391 3.4 1.798 4.5 1.447 3.914 5.517 12.025 6.993 13.939 4.003 5.189 10.367 10.561 12.511 10.561.819 0 1.489.348 1.489.773 0 2.531 28.407 4.562 32.764 2.342.955-.486 4.826-1.873 8.603-3.081 3.778-1.208 8.728-3.304 11-4.659 2.273-1.355 4.889-2.712 5.814-3.018 2.043-.674 2.395-4.066 3.716-35.857.991-23.832 1.693-30.5 3.212-30.5.49 0 .891-.685.891-1.521 0-2.333 9.22-11.124 13.602-12.971 3.828-1.613 6.161-1.605 17.154.059 2.341.354 4.505 1.047 4.809 1.539.304.492 1.625.894 2.935.894s2.66.45 3 1c.34.55 1.288 1 2.107 1 .819 0 3.352.9 5.629 2 2.277 1.1 5.154 2 6.393 2 1.239 0 2.494.389 2.788.865.523.847 2.409 1.31 13.583 3.337 8.874 1.61 27.042 2.073 31.5.802l7.5-2.138c14.936-4.26 24.369-17.227 26.696-36.696.544-4.549-1.542-16.17-2.902-16.17-.437 0-.794-.622-.794-1.381 0-1.958-5.855-7.452-10-9.384-1.925-.897-3.725-1.882-4-2.188-.275-.307-2.3-1.148-4.5-1.868-2.2-.721-4.9-1.68-6-2.131-1.1-.451-4.025-1.374-6.5-2.051-7.398-2.024-15.262-5.218-19.25-7.818-3.596-2.344-3.75-2.676-3.758-8.062-.009-5.778-2.192-22.762-4.064-31.617-.582-2.75-1.301-6.69-1.598-8.756-.298-2.066-.944-4.005-1.436-4.309-.492-.304-.894-1.545-.894-2.758s-.9-4.668-2-7.677c-1.1-3.009-2-6.859-2-8.555 0-2.852.375-3.186 5-4.445 2.75-.749 5-1.73 5-2.181 0-.45.906-.819 2.014-.819 1.107 0 2.795-.397 3.75-.883.955-.486 2.861-1.322 4.236-1.858 1.375-.536 4.455-1.939 6.845-3.117 2.389-1.178 4.976-2.142 5.75-2.142.773 0 1.405-.45 1.405-1s.9-1 2-1 2-.45 2-1 .629-1 1.398-1c2.207 0 19.762-9.636 20.435-11.217.184-.431 1.031-.783 1.883-.783.852 0 2.277-.809 3.167-1.797.889-.989 3.192-2.895 5.117-4.237 4.38-3.052 10.445-9.11 14.986-14.969 1.917-2.473 4.054-5.092 4.75-5.818.695-.727 1.264-1.708 1.264-2.179 0-.471.563-1.469 1.25-2.217 2.602-2.832 9.75-16.875 9.75-19.157 0-.894.352-1.626.782-1.626.43 0 1.367-2.137 2.083-4.75.717-2.612 1.687-5.65 2.157-6.75 3.464-8.11 4.731-38.645 1.992-48a660.876 660.876 0 0 1-2.124-7.5c-1.895-6.85-7.513-18.35-11.58-23.705-2.003-2.637-7.055-7.945-11.226-11.795-16.702-15.416-39.387-38.862-44.147-45.63-1.304-1.853-2.948-3.965-3.654-4.691-.706-.727-1.283-1.708-1.283-2.179 0-.471-.562-1.469-1.25-2.217-1.396-1.52-3.098-4.354-6.175-10.283-1.141-2.2-2.485-4.297-2.987-4.659-1.325-.958 1.911-3.841 4.311-3.841 7.088 0 23.071-12.15 27.012-20.533 2.84-6.044 2.835-15.064-.012-20.187-3.05-5.486-4.359-6.714-10.845-10.17-5.201-2.772-6.741-3.108-14.194-3.095-7.513.014-14.648 1.44-16.508 3.3-.377.377-1.51.685-2.519.685-1.008 0-1.833.42-1.833.933 0 .513-.907 1.22-2.016 1.572-1.109.352-4.147 2.62-6.75 5.039-2.604 2.42-5.528 4.412-6.498 4.428-1.584.025-5.44-1.676-6.736-2.972-2.131-2.131-9.288-4.994-19.75-7.9-3.307-.918-4.25-1.655-4.25-3.319 0-4.177-2.513-9.336-6.479-13.302-6.607-6.607-14.109-8.073-22.426-4.384M283.75 41.732c2.337.211 6.163.211 8.5 0 2.337-.21.425-.383-4.25-.383s-6.587.173-4.25.383M127 322.5c1.866 1.925 3.617 3.5 3.892 3.5.275 0-1.026-1.575-2.892-3.5-1.866-1.925-3.617-3.5-3.892-3.5-.275 0 1.026 1.575 2.892 3.5" fill="#d30207" fill-rule="evenodd"/><path d="M309.095 16.095c-4.757 2.111-8.222 5.564-10.6 10.565l-1.503 3.159-19.746.539c-10.86.297-21.771.792-24.246 1.1-8.046 1.002-18.42 2.663-22 3.521-1.925.461-5.75 1.298-8.5 1.858-2.75.561-6.256 1.29-7.79 1.621-2.355.507-3.448-.076-7-3.732-7.424-7.641-15.253-10.115-21.938-6.934C180.569 30.268 174 36.179 174 38.385c0 .888-.45 1.615-1 1.615-.564 0-1 2.842-1 6.525 0 6.45-.034 6.532-3 7.125-1.65.33-3 .994-3 1.475 0 .481-.661.875-1.47.875-3.618 0-17.507 9.663-24.066 16.743l-4.036 4.357-2.964-2.615c-2.713-2.393-6.228-4.269-13.761-7.343-6.872-2.805-27.651-.271-31.703 3.865-.275.281-2.184 1.632-4.243 3.002-2.059 1.37-3.746 2.998-3.75 3.619-.004.62-.673 1.68-1.486 2.355C75.729 82.3 74 87.314 74 93.095c0 3.183.45 6.065 1 6.405.55.34 1 1.491 1 2.559s.395 1.941.879 1.941c.483 0 1.392 1.237 2.02 2.75.628 1.513 2.82 3.874 4.872 5.249 2.051 1.374 4.346 3.084 5.1 3.799.753.715 2.666 1.559 4.25 1.876 1.583.317 2.879.921 2.879 1.342 0 .845 4.716 1.82 12.75 2.636 2.916.296 5.291 1.048 5.342 1.691.051.636.021 10.157-.067 21.157-.19 23.987.046 23.084-13.439 51.437-1.422 2.991-2.586 6.028-2.586 6.75 0 .722-.45 1.313-1 1.313s-1 .873-1 1.941-.45 2.219-1 2.559c-.55.34-1 1.716-1 3.059 0 1.343-.45 2.441-1 2.441s-1 1.098-1 2.441c0 1.343-.4 2.688-.89 2.991-.489.302-1.127 2.016-1.419 3.809-.291 1.792-1.232 6.859-2.091 11.259-1.84 9.433-2.032 20.5-.5 28.94 1.14 6.282 4.406 18.569 5.863 22.06.459 1.1 1.383 3.575 2.053 5.5 2.937 8.439 9.034 21 10.193 21 .435 0 .791.567.791 1.261 0 3.398 20.218 23.811 27.885 28.154.888.503 1.846 1.257 2.128 1.675.893 1.326 20.409 10.892 22.237 10.901.963.005 1.75.361 1.75.791 0 .43 2.137 1.378 4.75 2.106 8.098 2.259 11.663 3.335 14.047 4.24 1.263.48 3.481.872 4.929.872 1.448 0 4.014.432 5.703.96 1.689.527 5.931 1.531 9.428 2.23l6.356 1.27-.621 7.02c-.686 7.764-2.183 17.743-3.641 24.284-.523 2.346-.951 7.162-.951 10.703 0 7.32-1.13 10.408-5.461 14.923-4.67 4.869-8.501 9.975-8.521 11.36-.01.688-.416 1.25-.901 1.25-.486 0-1.145.788-1.464 1.75-.32.962-1.266 3.55-2.102 5.75-3.154 8.296-1.172 22.96 3.949 29.223.55.672 2.35 3.014 4 5.204 1.65 2.189 3.478 4.001 4.061 4.027.584.025 2.028.946 3.209 2.046 1.18 1.1 2.647 2 3.26 2 2.6 0 5.017 5.233 6.467 14 .867 5.242 2.243 11.954 3.486 17 1.035 4.201 1.477 5.955 3.972 15.75.526 2.063 1.235 5.1 1.576 6.75.341 1.65 1.096 4.125 1.678 5.5.582 1.375 1.391 3.4 1.798 4.5 1.447 3.914 5.517 12.025 6.993 13.939 4.003 5.189 10.367 10.561 12.511 10.561.819 0 1.489.348 1.489.773 0 2.531 28.407 4.562 32.764 2.342.955-.486 4.826-1.873 8.603-3.081 3.778-1.208 8.728-3.304 11-4.659 2.273-1.355 4.889-2.712 5.814-3.018 2.043-.674 2.395-4.066 3.716-35.857.991-23.832 1.693-30.5 3.212-30.5.49 0 .891-.685.891-1.521 0-2.333 9.22-11.124 13.602-12.971 3.828-1.613 6.161-1.605 17.154.059 2.341.354 4.505 1.047 4.809 1.539.304.492 1.625.894 2.935.894s2.66.45 3 1c.34.55 1.288 1 2.107 1 .819 0 3.352.9 5.629 2 2.277 1.1 5.154 2 6.393 2 1.239 0 2.494.389 2.788.865.523.847 2.409 1.31 13.583 3.337 8.874 1.61 27.042 2.073 31.5.802l7.5-2.138c14.936-4.26 24.369-17.227 26.696-36.696.544-4.549-1.542-16.17-2.902-16.17-.437 0-.794-.622-.794-1.381 0-1.958-5.855-7.452-10-9.384-1.925-.897-3.725-1.882-4-2.188-.275-.307-2.3-1.148-4.5-1.868-2.2-.721-4.9-1.68-6-2.131-1.1-.451-4.025-1.374-6.5-2.051-7.398-2.024-15.262-5.218-19.25-7.818-3.596-2.344-3.75-2.676-3.758-8.062-.009-5.778-2.192-22.762-4.064-31.617-.582-2.75-1.301-6.69-1.598-8.756-.298-2.066-.944-4.005-1.436-4.309-.492-.304-.894-1.545-.894-2.758s-.9-4.668-2-7.677c-1.1-3.009-2-6.859-2-8.555 0-2.852.375-3.186 5-4.445 2.75-.749 5-1.73 5-2.181 0-.45.906-.819 2.014-.819 1.107 0 2.795-.397 3.75-.883.955-.486 2.861-1.322 4.236-1.858 1.375-.536 4.455-1.939 6.845-3.117 2.389-1.178 4.976-2.142 5.75-2.142.773 0 1.405-.45 1.405-1s.9-1 2-1 2-.45 2-1 .629-1 1.398-1c2.207 0 19.762-9.636 20.435-11.217.184-.431 1.031-.783 1.883-.783.852 0 2.277-.809 3.167-1.797.889-.989 3.192-2.895 5.117-4.237 4.38-3.052 10.445-9.11 14.986-14.969 1.917-2.473 4.054-5.092 4.75-5.818.695-.727 1.264-1.708 1.264-2.179 0-.471.563-1.469 1.25-2.217 2.602-2.832 9.75-16.875 9.75-19.157 0-.894.352-1.626.782-1.626.43 0 1.367-2.137 2.083-4.75.717-2.612 1.687-5.65 2.157-6.75 3.464-8.11 4.731-38.645 1.992-48a660.876 660.876 0 0 1-2.124-7.5c-1.895-6.85-7.513-18.35-11.58-23.705-2.003-2.637-7.055-7.945-11.226-11.795-16.702-15.416-39.387-38.862-44.147-45.63-1.304-1.853-2.948-3.965-3.654-4.691-.706-.727-1.283-1.708-1.283-2.179 0-.471-.562-1.469-1.25-2.217-1.396-1.52-3.098-4.354-6.175-10.283-1.141-2.2-2.485-4.297-2.987-4.659-1.325-.958 1.911-3.841 4.311-3.841 7.088 0 23.071-12.15 27.012-20.533 2.84-6.044 2.835-15.064-.012-20.187-3.05-5.486-4.359-6.714-10.845-10.17-5.201-2.772-6.741-3.108-14.194-3.095-7.513.014-14.648 1.44-16.508 3.3-.377.377-1.51.685-2.519.685-1.008 0-1.833.42-1.833.933 0 .513-.907 1.22-2.016 1.572-1.109.352-4.147 2.62-6.75 5.039-2.604 2.42-5.528 4.412-6.498 4.428-1.584.025-5.44-1.676-6.736-2.972-2.131-2.131-9.288-4.994-19.75-7.9-3.307-.918-4.25-1.655-4.25-3.319 0-4.177-2.513-9.336-6.479-13.302-6.607-6.607-14.109-8.073-22.426-4.384m3.155 10.567c-.687.278-1.25 1.359-1.25 2.402 0 1.908.834 2.256 8 3.332 1.925.29 4.512.821 5.75 1.182 2.92.851 3-1.355.177-4.943-1.733-2.204-2.837-2.622-6.75-2.556-2.572.043-5.239.306-5.927.583M188.242 39.494c-4.438 1.929-6.805 8.506-3.061 8.506C187.113 48 200 42.642 200 41.839c0-.982-5.441-3.853-7.2-3.8-.715.022-2.766.676-4.558 1.455m80.572 2.523c-17.548 1.285-39.745 4.748-54.314 8.474-14.969 3.829-39.298 12.717-49.536 18.097-12.344 6.487-24.334 20.916-32.563 39.188-5.602 12.438-6.836 20.122-6.061 37.724.906 20.544.173 23.331-14.214 54.092-11.613 24.828-14.935 38.513-13.661 56.266 1.432 19.955 11.902 46.716 23.96 61.243 14.88 17.927 40.423 30.263 75.263 36.349 64.645 11.293 166.415-8.949 227.163-45.183 16.328-9.739 30.751-25.235 39.178-42.095 12.894-25.796 12.836-61.303-.136-83.392-3.064-5.217-7.386-9.857-19.331-20.755-34.908-31.848-52.755-55.44-57.511-76.025-1.788-7.735-4.936-12.728-12.474-19.779-19.014-17.786-61.281-27.459-105.763-24.204M397.5 44.342c-5.524 1.401-13.202 5.567-16.039 8.701-1.798 1.987-1.729 2.131 3.659 7.741 3.02 3.144 6.1 6.946 6.845 8.449 1.959 3.951 4.84 6.767 6.925 6.767 8.347 0 21.378-10.628 23.445-19.122.786-3.226-2.473-8.474-6.838-11.012-4.098-2.382-11.98-3.05-17.997-1.524M98.849 78.361c-13.154 3.619-17.324 13.201-9.852 22.635 5.324 6.722 10.919 9.336 21.015 9.819l8.651.414 1.234-3.365c.678-1.85 3.264-7.551 5.745-12.669 5.18-10.68 5.18-10.679-3.407-14.462-7.07-3.114-17.019-4.123-23.386-2.372M390 169.027c-11.825 2.088-31.962 5.257-44.75 7.041L322 179.312l.015 4.594c.027 7.939-1.268 7.763 27.117 3.68 25.534-3.672 67.777-11.294 69.056-12.459.379-.345.23-2.764-.331-5.377-1.246-5.809.657-5.76-27.857-.723M238 195.03c-7.383 1.278-40.001 4.014-63 5.283l-21.5 1.187-.3 5.75-.3 5.75 5.8-.002c3.19-.002 11.65-.44 18.8-.974s19.975-1.433 28.5-1.998c14.537-.963 41.095-3.848 41.832-4.544.183-.172.019-2.827-.365-5.898-.774-6.193-.57-6.095-9.467-4.554m109.81 156.916c-6.979 2.093-15.647 4.363-19.262 5.045-3.615.682-6.795 1.6-7.067 2.04-.272.44 2.472 2.975 6.098 5.634 4.988 3.659 7.178 6.072 9.001 9.92 7.13 15.049 4.669 30.458-6.62 41.454-8.981 8.748-6.011 8.169-61.755 12.038-16.663 1.156-30.95 1.851-31.75 1.544-1.007-.386-1.455-2.11-1.455-5.59 0-4.128.314-5.029 1.75-5.023.963.005 13-.896 26.75-2.001a17491.8 17491.8 0 0 1 37.84-3.004c14.917-1.156 18.113-2.361 23.043-8.689 7.764-9.964 5.591-25.076-4.703-32.72-4.156-3.085-19.793-3.499-28.18-.745-5.474 1.797-6.11 1.83-7.25.369-.687-.88-1.25-2.688-1.25-4.019 0-2.235-.284-2.372-3.75-1.815-2.062.332-16.894.893-32.959 1.248l-29.21.645-.549 4.111c-.302 2.262-1.557 10.637-2.789 18.612-1.907 12.343-2.228 18.293-2.16 40 .105 32.923 2.255 49.576 11.833 91.633 5.186 22.769 10.274 34.802 16.749 39.613 4.986 3.704 9.193 4.754 19.056 4.754 7.333 0 10.617-.562 18.427-3.152 12.849-4.26 12.832-4.23 12.002-21.653-1.665-34.935 5.062-56.089 24.976-78.543 4.622-5.211 7.64-5.916 11.185-2.613 2.945 2.743 2.775 3.813-1.316 8.267-1.922 2.093-3.495 4.064-3.495 4.38 0 .316 2.057.342 4.572.059 6.566-.74 22.196 2.827 33.639 7.677 8.325 3.528 23.454 6.677 34.897 7.264 15.225.781 23.237-1.36 29.533-7.89 6.674-6.922 8.369-11.477 8.475-22.765.046-4.936-.447-7.782-1.72-9.938-2.191-3.709-10.325-8.106-20.396-11.025-17.916-5.194-27.621-10.083-32.367-16.305-2.69-3.526-2.782-4.021-2.641-14.106.132-9.495-6.271-44.11-10.249-55.407-.65-1.846-1.814-3.219-2.694-3.179-.852.039-7.259 1.783-14.239 3.875m-152.532 87.332c-3.461 5.084-4.59 9.41-3.985 15.268 1.045 10.128 8.267 22.357 10.811 18.307.468-.744.66-2.028.426-2.853-.233-.825-.692-7.35-1.021-14.5-.959-20.861-1.722-22.847-6.231-16.222" fill="#020202" fill-rule="evenodd"/><path d="M312.75 27.08c-.962.561-1.75 1.652-1.75 2.424 0 1.319 1.347 1.718 9.5 2.811 1.65.221 3.839.759 4.865 1.195 1.609.683 1.769.462 1.164-1.609-.387-1.32-1.614-3.189-2.727-4.151-2.226-1.925-8.268-2.291-11.052-.67M189.686 39.017c-4.159 1.248-5.686 2.888-5.686 6.105 0 3.437 1.51 3.664 6.79 1.02 2.04-1.022 4.948-2.156 6.46-2.519 3.723-.895 3.459-2.429-.718-4.174-1.907-.797-3.595-1.41-3.75-1.363l-3.096.931M257 43.103c-13.894 1.563-33.436 4.99-42.889 7.521-13.394 3.587-36.172 11.75-45.831 16.425-14.583 7.059-27.69 22.006-35.89 40.93-5.399 12.459-6.526 19.637-6.185 39.421.215 12.462-.088 18.456-1.116 22.1-.776 2.75-5.565 14.02-10.642 25.045-14.529 31.55-17.694 44.688-15.539 64.496 1.702 15.647 9.48 37.285 18.316 50.959 3.966 6.137 15.89 18.011 22.776 22.682 15.653 10.617 43.187 19.412 70 22.359 21.695 2.384 53.63 1.351 81-2.622 51.521-7.479 105.205-25.767 138.5-47.183 13.238-8.515 26.931-24.199 34.858-39.929 6.637-13.168 10.504-35.955 8.732-51.449-2.521-22.035-8.232-33.68-22.813-46.513-13.515-11.895-30.222-28.508-38.562-38.345-13.757-16.227-20.896-28.351-24.132-40.984-2.085-8.135-4.903-13.375-10.297-19.141-11.564-12.363-31.925-20.824-60.905-25.309-11.07-1.713-45.855-1.984-59.381-.463m144 .617c-6.636 1.039-18.475 7.003-20.542 10.348-.346.56 1.767 3.485 4.696 6.499 2.93 3.013 6.115 7.016 7.078 8.894 3.698 7.207 8.422 7.759 17.768 2.075 9.847-5.988 14.536-15.47 10.501-21.231-3.314-4.731-12.194-7.73-19.501-6.585M102.5 77.73c-10.924 1.279-18.572 8.744-17.084 16.676.9 4.798 9.158 12.92 15.245 14.994 5.737 1.955 18.326 2.195 18.365.35.015-.687 2.493-6.425 5.507-12.75 5.456-11.45 5.471-11.507 3.432-13.193-4.718-3.904-17.658-6.992-25.465-6.077m307 87.811C406.182 166.81 327.721 179 322.867 179c-1.139 0-1.094 9.094.054 10.906.751 1.187 5.392.753 29.735-2.783 15.864-2.304 37.169-5.865 47.344-7.913l18.5-3.724-.267-2.993c-.597-6.704-1.079-7.498-4.502-7.414-1.777.043-3.681.251-4.231.462m-173 29.536c-8.576 1.444-27.644 3.076-55.847 4.781L153.5 201.5l-.3 5.75-.3 5.75h6.909c16.186 0 86.525-6 88.034-7.51.219-.219.087-2.894-.294-5.944-.779-6.235-.714-6.209-11.049-4.469m118 155.016c-3.3 1.092-11.829 3.48-18.953 5.306-7.124 1.826-13.073 3.721-13.219 4.21-.146.49 2.439 2.855 5.745 5.256 6.808 4.945 9.971 10.142 11.924 19.59 1.508 7.301.706 15.049-2.208 21.334-2.795 6.03-12.635 15.622-18.085 17.63-2.911 1.072-15.889 2.33-42.204 4.091-20.9 1.399-38.491 2.714-39.091 2.924-2.144.749-3.199-1.01-3.551-5.923l-.358-4.988 5.5-.677c3.025-.372 15.175-1.408 27-2.303 38.147-2.886 47.364-3.731 49.474-4.533 2.666-1.014 8.278-6.708 10.165-10.314 2.182-4.168 2.813-12.01 1.379-17.131-1.676-5.985-7.125-12.223-11.817-13.526-5.846-1.624-17.071-1.221-24.403.876-7.267 2.078-8.308 1.739-8.952-2.915-.276-1.997-.849-2.447-2.846-2.238-1.375.144-16.044.542-32.598.884l-30.098.623-2.82 19.615c-5.939 41.307-3.999 75.667 7.091 125.616 7.975 35.914 12.145 45.586 21.925 50.846 3.4 1.828 5.65 2.151 15 2.153 9.432.001 12.257-.411 19.819-2.89 5.652-1.852 9.313-3.648 10.194-5 1.071-1.642 1.332-6.647 1.182-22.609-.16-16.962.128-21.881 1.67-28.5 3.712-15.93 10.165-28.614 21.103-41.48 6.546-7.699 9.687-8.865 13.532-5.02 2.298 2.298 2.536 4.271.75 6.224-.687.751-2.375 2.645-3.75 4.209l-2.5 2.843 4.479-.574c6.061-.776 18.53 1.717 29.944 5.986 17.311 6.476 28.019 8.676 42.577 8.748 11.606.057 13.561-.189 18.227-2.299 11.217-5.072 16.76-15.086 16.122-29.128-.534-11.761-3.057-13.889-24.349-20.545-25.58-7.996-34.265-15.206-32.838-27.259.893-7.537-3.952-37.02-8.866-53.955-2.378-8.193-2.27-8.144-11.296-5.157m-159.907 90.511c-3.972 6.288-4.442 12.335-1.617 20.823 2.159 6.489 6.153 12.573 8.253 12.573.718 0 .836-4.52.37-14.25-.866-18.106-1.574-23.75-2.978-23.748-.616.001-2.429 2.072-4.028 4.602" fill="#fafbfb" fill-rule="evenodd"/></svg>
