<svg xmlns="http://www.w3.org/2000/svg" width="572" height="581" viewBox="0 0 572 581" version="1.1"><path d="M 311.038 15.391 C 306.473 16.854, 298 25.270, 298 28.341 C 298 29.507, 294.401 29.875, 278.250 30.363 C 256.206 31.028, 247.730 31.963, 228 35.909 C 211.372 39.234, 210.749 39.302, 209.951 37.881 C 207.524 33.560, 201.745 29.192, 195.750 27.149 C 191.026 25.539, 186.381 26.928, 180.226 31.794 C 174.715 36.151, 172 41.495, 172 47.985 C 172 52.592, 171.752 53.143, 169.250 54.086 C 167.738 54.656, 165.193 55.770, 163.596 56.561 C 161.999 57.353, 160.087 58, 159.346 58 C 158.606 58, 158 58.420, 158 58.933 C 158 59.446, 157.103 60.150, 156.006 60.498 C 154.909 60.846, 153.436 61.664, 152.731 62.316 C 152.027 62.967, 149.437 65.052, 146.975 66.948 C 144.514 68.845, 142.139 70.985, 141.697 71.704 C 141.256 72.423, 139.901 74.167, 138.686 75.578 L 136.478 78.145 132.197 74.073 C 129.842 71.833, 127.035 70, 125.958 70 C 124.881 70, 124 69.643, 124 69.207 C 124 67.833, 115.227 66, 108.651 66 C 97.287 66, 82.627 72.723, 78.931 79.629 C 78.233 80.933, 77.288 82, 76.831 82 C 76.374 82, 76 82.873, 76 83.941 C 76 85.009, 75.550 86.160, 75 86.500 C 73.500 87.427, 73.797 96.286, 75.457 100.128 C 76.259 101.983, 77.775 104.771, 78.826 106.324 C 81.211 109.848, 91.916 117.975, 94.191 117.989 C 95.121 117.995, 96.128 118.398, 96.429 118.885 C 97.049 119.888, 101 120.810, 108.967 121.812 L 114.434 122.500 114.124 144.407 C 113.953 156.456, 113.350 167.481, 112.782 168.907 C 112.215 170.333, 111.404 172.400, 110.979 173.500 C 110.257 175.371, 108.685 178.892, 102.500 192.500 C 101.125 195.525, 98.824 200.588, 97.386 203.750 C 91.253 217.241, 86.013 238.166, 86.054 249 C 86.071 253.434, 88.036 266.684, 89.835 274.500 C 91.296 280.844, 96.356 295.467, 97.217 295.833 C 97.648 296.017, 98 296.854, 98 297.693 C 98 299.131, 103.788 310.919, 105.024 312 C 105.339 312.275, 106.671 314.075, 107.985 316 C 111.902 321.738, 128.046 337.364, 134.636 341.794 C 141.723 346.559, 154.477 352.928, 161 354.959 C 163.475 355.730, 165.950 356.669, 166.500 357.046 C 167.050 357.423, 168.625 357.975, 170 358.273 C 171.375 358.571, 175.200 359.488, 178.500 360.310 C 181.800 361.133, 187.200 362.342, 190.500 362.998 C 193.800 363.654, 197.534 364.598, 198.797 365.095 C 200.060 365.593, 202.250 366, 203.664 366 C 205.951 366, 206.165 366.302, 205.610 368.750 C 205.267 370.262, 204.525 375.325, 203.959 380 C 203.394 384.675, 202.480 391.200, 201.928 394.500 C 201.376 397.800, 200.693 403.875, 200.409 408 C 199.790 417.015, 198.996 418.840, 192.514 426.165 C 189.756 429.281, 186.604 433.556, 185.510 435.665 C 184.415 437.774, 183.282 439.725, 182.993 440 C 181.928 441.012, 180 450.154, 180 454.193 C 180 461.447, 184.059 471.373, 189.740 478.009 C 191.619 480.204, 193.796 482, 194.578 482 C 195.360 482, 196 482.399, 196 482.886 C 196 483.373, 197.569 484.517, 199.486 485.427 C 201.404 486.337, 203.374 487.850, 203.864 488.791 C 204.995 490.958, 208 505.856, 208 509.291 C 208 510.716, 208.450 512.160, 209 512.500 C 209.550 512.840, 210 514.195, 210 515.512 C 210 516.829, 210.407 518.940, 210.905 520.203 C 211.402 521.466, 212.365 525.200, 213.044 528.500 C 214.579 535.958, 220.218 553.383, 221.242 553.833 C 221.659 554.017, 222 555.029, 222 556.083 C 222 557.138, 222.450 558, 223 558 C 223.550 558, 224 558.727, 224 559.617 C 224 561.845, 234.886 572.406, 239.076 574.241 C 246.528 577.505, 250.539 578.147, 260.500 577.669 C 271.748 577.129, 277.755 576.205, 278.568 574.890 C 278.871 574.400, 279.869 574, 280.787 574 C 283.010 574, 296 567.871, 296 566.823 C 296 566.370, 296.648 566, 297.441 566 C 298.234 566, 299.096 565.653, 299.359 565.229 C 299.621 564.805, 300.340 551.867, 300.958 536.479 C 302.301 502.996, 303.060 499.459, 310.575 491.655 C 317.664 484.294, 324.844 482.313, 334.884 484.949 C 346.180 487.915, 348 488.508, 348 489.218 C 348 489.648, 349.035 490, 350.300 490 C 351.565 490, 353.028 490.369, 353.550 490.820 C 355.483 492.488, 373.794 497.527, 382 498.650 C 389.394 499.661, 406.550 499.602, 411.500 498.549 C 423.916 495.906, 434.778 487.055, 439.171 476 C 444.013 463.817, 444.819 457.886, 442.706 450 C 439.105 436.564, 429.949 430.635, 400.750 422.833 C 398.138 422.135, 396 421.212, 396 420.782 C 396 420.352, 395.100 420, 394 420 C 392.900 420, 392 419.660, 392 419.244 C 392 418.828, 390.723 417.923, 389.161 417.232 L 386.322 415.975 384.736 399.738 C 383.238 384.411, 382.511 379.756, 379.934 369 C 379.341 366.525, 378.613 363.033, 378.317 361.241 C 378.021 359.448, 377.379 357.734, 376.890 357.432 C 376.400 357.129, 376 355.810, 376 354.500 C 376 353.190, 375.602 351.872, 375.115 351.571 C 374.050 350.913, 373.073 345.004, 373.739 343.250 C 374 342.563, 374.976 342, 375.907 342 C 376.838 342, 378.028 341.602, 378.550 341.116 C 379.073 340.631, 382.425 339.228, 386 338 C 389.575 336.772, 392.928 335.369, 393.450 334.884 C 393.973 334.398, 394.985 334, 395.699 334 C 396.414 334, 400.709 332.200, 405.245 330 C 409.781 327.800, 414.056 326, 414.746 326 C 415.436 326, 416 325.550, 416 325 C 416 324.450, 416.900 324, 418 324 C 419.100 324, 420 323.550, 420 323 C 420 322.450, 420.900 322, 422 322 C 423.100 322, 424 321.639, 424 321.197 C 424 320.755, 426.243 319.293, 428.984 317.947 C 431.726 316.601, 433.976 315.163, 433.984 314.750 C 433.993 314.337, 434.590 314, 435.311 314 C 436.033 314, 437.496 313.212, 438.562 312.250 C 439.629 311.288, 442.199 309.232, 444.274 307.682 C 449.027 304.130, 451.663 301.493, 456.581 295.369 C 458.732 292.691, 461.169 289.820, 461.996 288.989 C 462.823 288.158, 464.063 286.471, 464.750 285.239 C 465.438 284.008, 466.563 281.988, 467.250 280.750 C 467.938 279.512, 468.725 278.275, 469 278 C 470.323 276.677, 474 269.039, 474 267.614 C 474 266.726, 474.450 266, 475 266 C 475.550 266, 476 265.319, 476 264.486 C 476 263.654, 476.397 262.191, 476.883 261.236 C 478.599 257.863, 479.857 254.465, 480.486 251.500 C 480.837 249.850, 481.614 246.250, 482.214 243.500 C 483.747 236.468, 483.674 206.605, 482.111 201 C 481.420 198.525, 480.614 195.037, 480.318 193.250 C 480.023 191.463, 479.380 190, 478.891 190 C 478.401 190, 478 189.312, 478 188.471 C 478 186.887, 472.733 175.916, 470.672 173.209 C 468.871 170.842, 455.711 157.649, 443.500 145.968 C 433.404 136.311, 427.536 130.203, 417.932 119.358 C 415.970 117.142, 412.030 111.768, 409.176 107.415 C 406.322 103.062, 403.539 98.956, 402.993 98.292 C 402.447 97.628, 402 96.390, 402 95.542 C 402 94.694, 401.663 93.996, 401.250 93.992 C 400.837 93.988, 399.945 92.788, 399.266 91.326 C 397.789 88.147, 399.071 86, 402.445 86 C 406.561 86, 417.419 79.866, 422.551 74.642 C 429.370 67.700, 432 62.006, 432 54.184 C 432 50.728, 431.559 48, 431 48 C 430.450 48, 430 47.242, 430 46.316 C 430 43.827, 420.418 35.034, 416.951 34.340 C 415.305 34.011, 413.716 33.350, 413.420 32.871 C 413.124 32.392, 409.451 32, 405.258 32 C 393.529 32, 381.580 37.020, 373.849 45.196 C 370.688 48.539, 366.630 48.839, 363 46 C 361.625 44.924, 359.938 44.034, 359.250 44.022 C 358.563 44.010, 358 43.602, 358 43.117 C 358 42.631, 357.212 41.972, 356.250 41.653 C 355.288 41.333, 352.700 40.387, 350.500 39.551 C 348.300 38.714, 345.734 38.023, 344.797 38.015 C 341.958 37.990, 338 35.772, 338 34.206 C 338 27.010, 330.538 17.377, 323.280 15.202 C 318.624 13.807, 315.846 13.850, 311.038 15.391 M 312.152 26.885 C 311.410 27.355, 310.966 28.586, 311.165 29.620 C 311.440 31.048, 312.724 31.653, 316.513 32.139 C 319.256 32.490, 322.738 33.101, 324.250 33.497 C 326.550 34.099, 327 33.900, 327 32.283 C 327 28.864, 322.855 25.998, 317.936 26.015 C 315.496 26.024, 312.893 26.415, 312.152 26.885 M 187.704 39.596 C 183.593 41.825, 181.739 48, 185.181 48 C 187.070 48, 200 42.651, 200 41.870 C 200 40.442, 195.554 38, 193.027 38.040 C 191.637 38.062, 189.242 38.762, 187.704 39.596 M 266.500 42.026 C 236.795 44.678, 214.152 49.347, 191.361 57.520 C 170.726 64.920, 159.248 70.912, 152.192 77.968 C 144.857 85.303, 138.264 95.026, 132.982 106.297 C 127.450 118.103, 125.815 126.025, 126.147 139.430 C 126.791 165.478, 126.144 169.384, 118.535 185.410 C 102.957 218.219, 99.438 228.332, 98.388 243.306 C 97.141 261.084, 101.913 281.213, 112.075 301.032 C 123.571 323.455, 140.390 336.805, 169.244 346.410 C 223.720 364.544, 301.423 358.364, 380.500 329.609 C 394.354 324.571, 418.932 312.362, 431 304.523 C 443.078 296.678, 456.865 280.990, 463.977 267 C 468.285 258.526, 471.880 245.583, 473.193 233.823 C 476.173 207.121, 467.691 181.034, 451.843 168.160 C 441.837 160.032, 421.946 140.777, 414.553 132.062 C 398.546 113.196, 391.017 100.630, 387.568 87.025 C 385.358 78.311, 382.348 73.491, 374.577 66.221 C 358.913 51.568, 328.467 42.397, 292.588 41.524 C 283.740 41.309, 272 41.535, 266.500 42.026 M 398.197 44.012 C 391.876 45.337, 379.418 52.828, 380.146 54.866 C 380.340 55.413, 382.750 58.272, 385.500 61.220 C 388.250 64.169, 391.461 68.363, 392.637 70.540 C 393.812 72.718, 395.837 74.885, 397.138 75.356 C 404.548 78.037, 420.023 66.725, 422.512 56.808 C 423.262 53.820, 419.678 48.300, 415.343 45.768 C 411.543 43.549, 404.062 42.783, 398.197 44.012 M 99.500 77.882 C 92.373 79.742, 88.097 83.162, 85.665 88.946 C 84.427 91.890, 84.433 92.801, 85.711 95.916 C 87.609 100.542, 92.470 105.645, 97.396 108.183 C 101.058 110.069, 115.068 112.206, 117.658 111.273 C 118.296 111.044, 119.337 109.426, 119.974 107.678 C 120.610 105.930, 123.126 100.382, 125.565 95.349 C 128.004 90.316, 130 85.770, 130 85.247 C 130 84.724, 126.963 82.908, 123.250 81.211 C 116.052 77.922, 105.185 76.399, 99.500 77.882 M 410.500 165.555 C 408.515 166.342, 356.105 174.822, 339.144 177.100 L 321.788 179.431 322.226 184.714 C 322.467 187.620, 322.904 190.237, 323.197 190.530 C 323.877 191.210, 369.528 184.733, 386 181.620 C 420.557 175.088, 418 175.745, 418 173.405 C 418 172.220, 417.719 169.844, 417.375 168.125 C 416.860 165.548, 416.290 165.014, 414.125 165.079 C 412.681 165.122, 411.050 165.336, 410.500 165.555 M 237.500 195.099 C 229.343 196.507, 202.918 198.804, 181.500 199.967 C 170.500 200.564, 159.700 201.153, 157.500 201.276 L 153.500 201.500 153.197 206.761 C 152.953 211.014, 153.228 212.150, 154.634 212.690 C 156.799 213.520, 216.771 209.463, 234.839 207.264 L 248.178 205.640 247.589 202.695 C 247.265 201.075, 247 198.456, 247 196.875 C 247 193.662, 246.433 193.556, 237.500 195.099 M 352.500 350.539 C 348.650 351.826, 340.325 354.097, 334 355.587 C 327.675 357.077, 322.104 358.648, 321.620 359.078 C 321.136 359.508, 323.693 362.002, 327.302 364.619 C 334.739 370.012, 338.287 375.743, 340.025 385.167 C 341.289 392.018, 340.069 400.984, 337.074 406.854 C 335.936 409.085, 332.434 413.421, 329.292 416.489 C 322.624 422.998, 318.326 424.553, 304.500 425.455 C 299.550 425.778, 282.516 426.963, 266.648 428.089 C 250.779 429.215, 237.167 429.894, 236.398 429.599 C 235.457 429.238, 235 427.418, 235 424.031 C 235 419.478, 235.214 419.001, 237.250 419.008 C 238.488 419.013, 250.750 418.120, 264.500 417.024 C 278.250 415.928, 295.248 414.580, 302.273 414.029 C 309.702 413.447, 316.247 412.407, 317.915 411.544 C 321.573 409.652, 326.847 403.020, 328.062 398.785 C 331.326 387.404, 326.076 374.612, 316.685 371.064 C 312.623 369.529, 297.229 369.825, 292.500 371.529 C 288.150 373.096, 284.044 373.441, 283.926 372.250 C 283.732 370.299, 282.919 366.586, 282.620 366.287 C 282.436 366.103, 276.259 366.412, 268.893 366.974 C 261.527 367.535, 246.858 367.996, 236.295 367.998 L 217.091 368 216.588 371.250 C 212.495 397.707, 210.992 412.991, 211.006 428 C 211.032 457.079, 213.840 480.052, 221.614 514.792 C 231.763 560.142, 236.689 567, 259.114 567 C 266.236 567, 269.837 566.404, 277.452 563.965 C 282.664 562.295, 287.595 560.262, 288.411 559.446 C 289.635 558.222, 289.883 554.166, 289.829 536.232 C 289.769 516.138, 289.953 513.783, 292.264 504.989 C 296.570 488.603, 303.139 476.365, 313.818 464.830 C 319.703 458.473, 322.208 457.682, 325.811 461.039 C 328.706 463.736, 328.608 464.321, 324.500 468.868 C 322.575 470.999, 321 473.020, 321 473.359 C 321 473.699, 323.813 473.948, 327.250 473.913 C 334.929 473.835, 343.093 475.718, 357.732 480.945 C 374.494 486.929, 387.146 489.251, 400.500 488.793 C 413.447 488.350, 418.215 486.612, 424.728 479.965 C 429.890 474.696, 432.039 468.678, 432.266 458.847 C 432.570 445.727, 430.153 443.537, 407.143 436.079 C 391.061 430.866, 381.556 425.906, 377.529 420.627 C 375.358 417.781, 375.081 416.433, 375.125 408.955 C 375.191 397.674, 370.717 371.460, 365.872 354.750 C 363.595 346.894, 363.497 346.864, 352.500 350.539 M 197.176 436.824 C 192.819 441.181, 190.759 446.900, 191.199 453.418 C 191.908 463.933, 199.341 477.140, 202.137 472.853 C 202.623 472.109, 202.822 470.600, 202.581 469.500 C 202.339 468.400, 201.829 460.750, 201.448 452.500 C 200.654 435.300, 200.235 433.765, 197.176 436.824" stroke="none" fill="#333333" fill-rule="evenodd"/></svg>
